<?xml version="1.0" encoding="UTF-8" standalone="no"?>
<!-- Created with Inkscape (http://www.inkscape.org/) -->

<svg
   width="210mm"
   height="297mm"
   viewBox="0 0 210 297"
   version="1.1"
   id="svg1"
   inkscape:version="1.3.2 (091e20e, 2023-11-25)"
   sodipodi:docname="dragon.svg"
   xmlns:inkscape="http://www.inkscape.org/namespaces/inkscape"
   xmlns:sodipodi="http://sodipodi.sourceforge.net/DTD/sodipodi-0.dtd"
   xmlns="http://www.w3.org/2000/svg"
   xmlns:svg="http://www.w3.org/2000/svg">
  <sodipodi:namedview
     id="namedview1"
     pagecolor="#ffffff"
     bordercolor="#000000"
     borderopacity="0.25"
     inkscape:showpageshadow="2"
     inkscape:pageopacity="0.0"
     inkscape:pagecheckerboard="0"
     inkscape:deskcolor="#d1d1d1"
     inkscape:document-units="mm"
     inkscape:zoom="0.5852904"
     inkscape:cx="397.2387"
     inkscape:cy="561.25984"
     inkscape:window-width="1440"
     inkscape:window-height="872"
     inkscape:window-x="0"
     inkscape:window-y="28"
     inkscape:window-maximized="0"
     inkscape:current-layer="layer1" />
  <defs
     id="defs1" />
  <g
     inkscape:label="图层 1"
     inkscape:groupmode="layer"
     id="layer1">
    <path
       style="font-size:140.978px;font-family:'Songti SC';-inkscape-font-specification:'Songti SC';fill:#ff0000;stroke-width:0.734259"
       d="M 86.480509,151.57245 H 62.091315 v 13.53389 h 24.389194 z"
       transform="scale(1.0163352,0.98392734)"
       id="path7" />
    <path
       style="font-size:140.978px;font-family:'Songti SC';-inkscape-font-specification:'Songti SC';fill:#ff0000;stroke-width:0.734259"
       d="M 62.091315,147.90702 H 86.480509 V 135.50096 H 62.091315 Z"
       transform="scale(1.0163352,0.98392734)"
       id="path6" />
    <path
       style="font-size:140.978px;font-family:'Songti SC';-inkscape-font-specification:'Songti SC';fill:#ff0000;stroke-width:0.734259"
       d="m 62.232293,131.97651 h 22.979414 l 3.947384,-6.06206 8.881614,6.48499 q 1.127824,0.70489 1.127824,1.55076 0,0.70489 -1.127824,1.2688 l -3.101516,1.69174 v 48.49643 q 0,6.76694 -1.550758,9.72748 -1.40978,2.96054 -4.93423,4.79325 -3.383472,1.83272 -4.652274,1.83272 -1.127824,0 -1.691736,-2.67859 -0.422934,-2.67858 -2.678582,-4.22934 -2.11467,-1.55075 -9.304548,-3.8064 l 0.281956,-1.97369 q 6.34401,0.84586 9.586504,0.84586 3.383472,0 4.93423,-0.98684 1.550758,-0.98685 1.550758,-4.08836 V 168.77177 H 62.091315 v 29.18244 q 0,2.5376 -3.665428,4.08836 -3.665427,1.55076 -4.793251,1.55076 -0.986846,0 -0.986846,-1.83271 l 0.422934,-8.45868 q 0.422934,-5.63912 0.422934,-15.36661 v -37.64112 q 0,-7.33086 -0.563912,-14.94367 z"
       transform="scale(1.0163352,0.98392734)"
       id="path5" />
    <path
       style="font-size:140.978px;font-family:'Songti SC';-inkscape-font-specification:'Songti SC';fill:#ff0000;stroke-width:0.734259"
       d="m 57.580019,97.436899 q 6.34401,2.537604 9.445526,4.934231 3.101516,2.39662 3.101516,5.49814 0,3.10152 -1.550758,5.07521 -1.550758,1.83271 -4.088362,1.83271 -2.396626,0 -2.960538,-5.21618 -0.422934,-5.35717 -5.357164,-10.996287 z"
       transform="scale(1.0163352,0.98392734)"
       id="path4" />
    <path
       style="font-size:140.978px;font-family:'Songti SC';-inkscape-font-specification:'Songti SC';fill:#ff0000;stroke-width:0.734259"
       d="m 79.290631,115.90502 q 5.075208,-11.98313 7.330856,-19.877901 l 7.330856,4.088361 q 1.691736,0.98685 1.691736,1.83271 0,0.84587 -1.832714,1.55076 -1.691736,0.42294 -11.137262,12.40607 h 9.445526 l 7.0489,-7.89477 7.894771,9.16357 q 0.98684,0.98684 0.98684,1.83271 0,0.70489 -1.83271,0.70489 H 53.773614 q -5.498142,0 -9.586504,1.55076 l -5.216186,-6.06205 q 5.357164,0.70489 11.701174,0.70489 z"
       transform="scale(1.0163352,0.98392734)"
       id="path3" />
    <path
       style="font-size:140.978px;font-family:'Songti SC';-inkscape-font-specification:'Songti SC';fill:#ff0000;stroke-width:0.734259"
       d="m 105.65352,93.207559 q 0.84586,1.127824 0.84586,1.832714 0,0.70489 -1.97369,0.70489 H 57.720997 q -5.498141,0 -9.586503,1.40978 l -5.216186,-5.921076 q 5.357164,0.845868 11.701174,0.845868 h 36.654279 l 6.625966,-7.75379 z"
       transform="scale(1.0163352,0.98392734)"
       id="path2" />
    <path
       style="font-size:140.978px;font-family:'Songti SC';-inkscape-font-specification:'Songti SC';fill:#ff0000;stroke-width:0.734259"
       d="m 121.1611,89.683109 h 27.06777 l 7.33086,-8.599658 8.74063,10.150416 q 0.84587,1.268802 0.84587,1.832714 0,0.563912 -1.69173,0.563912 h -42.2934 v 12.406067 h 24.9531 l 3.2425,-6.203035 8.45868,5.075205 q 1.40978,0.98685 1.40978,1.97369 0,0.98685 -0.84587,1.40978 l -2.81956,1.55076 v 6.06206 q 0,3.66542 0.28195,7.18987 l 0.70489,5.7801 q 0,2.11467 -3.52445,3.80641 -3.52445,1.69173 -4.79325,1.69173 -1.2688,0 -1.2688,-4.08836 h -28.47756 v 12.54704 h 26.64485 l 6.34401,-7.47183 7.61281,8.45868 q 0.98684,0.98685 0.98684,1.83271 0,0.84587 -1.69173,0.84587 h -39.89678 v 10.57335 h 24.67115 l 6.06206,-7.18988 8.45868,8.31771 q 0.84587,0.84586 0.84587,1.69173 0,0.84587 -1.83272,0.84587 h -38.20504 v 12.26509 h 25.658 l 6.48499,-7.47184 7.89477,8.74064 q 0.70489,0.84587 0.70489,1.69173 0,0.70489 -1.83272,0.70489 h -38.90993 v 9.72748 q 0,4.08837 2.67859,5.21619 2.81956,1.2688 17.34029,1.2688 14.52073,0 17.48127,-1.83271 3.10152,-1.69174 6.20303,-19.59594 h 1.9737 q -0.28196,10.57335 0.42293,13.81584 0.70489,3.38347 3.52445,5.07521 1.55076,1.12782 1.55076,2.11467 0,0.98684 -3.10152,3.8064 -3.10151,2.96054 -8.74063,3.66543 -5.63912,0.70489 -17.05834,0.70489 -11.41922,0 -19.17301,-0.56391 -7.75379,-0.56391 -9.86846,-2.67858 -1.97369,-1.97369 -1.97369,-7.75379 v -45.11296 q 0,-10.99628 -0.56391,-23.26137 l 8.03574,5.35716 h 29.74636 v -16.6354 h -26.22191 l -1.69173,3.24249 q -0.70489,1.26881 -1.69174,1.26881 -0.84587,0 -1.83271,-0.56392 l -6.62597,-4.65227 q 2.25565,-1.83271 3.10152,-3.52445 0.84586,-1.83271 0.84586,-5.07521 V 82.775187 q 0,-5.63912 -0.56391,-10.291394 l 10.85531,5.075208 q 1.69173,0.70489 1.69173,1.550758 0,0.845868 -1.55075,1.832714 l -2.11467,1.268802 z"
       transform="scale(1.0163352,0.98392734)"
       id="path1" />
    <path
       style="font-size:140.978px;font-family:'Songti SC';-inkscape-font-specification:'Songti SC';fill:#ff0000;stroke-width:0.734259"
       d="m 65.897721,72.201837 q 15.366602,4.511296 15.366602,10.432372 0,3.242494 -1.691736,5.63912 -1.691736,2.396626 -3.665428,2.396626 -1.973692,0 -2.678582,-0.986846 -0.70489,-1.127824 -1.268802,-4.088362 -1.127824,-6.907922 -6.907922,-11.701174 z"
       transform="scale(1.0163352,0.98392734)"
       id="text1" />
  </g>
</svg>
