<?xml version="1.0" encoding="UTF-8" standalone="no"?>
<!-- Created with Inkscape (http://www.inkscape.org/) -->

<svg
   width="210mm"
   height="297mm"
   viewBox="0 0 210 297"
   version="1.1"
   id="svg1"
   inkscape:version="1.3.2 (091e20e, 2023-11-25)"
   sodipodi:docname="A.svg"
   xmlns:inkscape="http://www.inkscape.org/namespaces/inkscape"
   xmlns:sodipodi="http://sodipodi.sourceforge.net/DTD/sodipodi-0.dtd"
   xmlns="http://www.w3.org/2000/svg"
   xmlns:svg="http://www.w3.org/2000/svg">
  <sodipodi:namedview
     id="namedview1"
     pagecolor="#ffffff"
     bordercolor="#000000"
     borderopacity="0.25"
     inkscape:showpageshadow="2"
     inkscape:pageopacity="0.0"
     inkscape:pagecheckerboard="0"
     inkscape:deskcolor="#d1d1d1"
     inkscape:document-units="mm"
     inkscape:zoom="0.61023429"
     inkscape:cx="384.27864"
     inkscape:cy="521.93069"
     inkscape:window-width="1440"
     inkscape:window-height="900"
     inkscape:window-x="0"
     inkscape:window-y="0"
     inkscape:window-maximized="0"
     inkscape:current-layer="layer1" />
  <defs
     id="defs1" />
  <g
     inkscape:label="图层 1"
     inkscape:groupmode="layer"
     id="layer1">
    <path
       d="m 38.048009,69.209538 v -9.292679 l 132.281811,-1.48211 3.39184,60.853531 -7.68818,0.0862 Q 161.51103,92.280658 152.23999,80.157322 142.96897,68.033986 126.23588,68.221467 l -32.787795,0.367359 q -8.140423,0.09121 -8.140423,9.139341 V 142.0433 l 14.471853,-0.16215 q 12.436755,-0.13935 19.446565,-9.26601 7.0098,-9.12667 7.0098,-27.22296 l 7.91429,-0.0887 v 83.87868 l -7.91429,0.0886 q 0,-38.63799 -27.586983,-38.3289 l -13.341235,0.14947 v 71.65147 q 0,8.06996 10.627765,7.95088 l 26.004113,-0.29136 q 42.28496,-0.47377 48.39028,-58.49915 l 8.14042,-0.0912 -2.71349,67.28008 -137.708741,1.54291 v -9.29268 l 11.306137,-0.12667 q 12.210627,-0.13681 12.210627,-9.91858 V 77.994186 q 0,-9.048133 -9.949399,-8.93666 z"
       id="text2"
       style="font-size:156.633px;font-family:AppleMyungjo;-inkscape-font-specification:AppleMyungjo;stroke-width:0.407148"
       aria-label="E" />
  </g>
</svg>
