<?xml version="1.0" encoding="UTF-8" standalone="no"?>
<!-- Created with Inkscape (http://www.inkscape.org/) -->

<svg
   width="210mm"
   height="297mm"
   viewBox="0 0 210 297"
   version="1.1"
   id="svg1"
   inkscape:version="1.3.2 (091e20e, 2023-11-25)"
   sodipodi:docname="A.svg"
   xmlns:inkscape="http://www.inkscape.org/namespaces/inkscape"
   xmlns:sodipodi="http://sodipodi.sourceforge.net/DTD/sodipodi-0.dtd"
   xmlns="http://www.w3.org/2000/svg"
   xmlns:svg="http://www.w3.org/2000/svg">
  <sodipodi:namedview
     id="namedview1"
     pagecolor="#ffffff"
     bordercolor="#000000"
     borderopacity="0.25"
     inkscape:showpageshadow="2"
     inkscape:pageopacity="0.0"
     inkscape:pagecheckerboard="0"
     inkscape:deskcolor="#d1d1d1"
     inkscape:document-units="mm"
     inkscape:zoom="0.61023429"
     inkscape:cx="328.56233"
     inkscape:cy="554.70498"
     inkscape:window-width="1440"
     inkscape:window-height="900"
     inkscape:window-x="0"
     inkscape:window-y="0"
     inkscape:window-maximized="0"
     inkscape:current-layer="layer1" />
  <defs
     id="defs1" />
  <g
     inkscape:label="图层 1"
     inkscape:groupmode="layer"
     id="layer1">
    <path
       d="m 191.16124,224.86824 q 0,1.92645 -5.20851,2.5686 -5.20851,0.64215 -8.68085,2.5686 -3.47234,2.1405 -6.75177,4.281 l -1.15744,-0.21405 q -4.05107,-4.06695 -8.10213,-7.91985 -8.48794,-8.9901 -16.59006,-20.33474 -11.38156,-15.8397 -19.48368,-32.74964 -9.25957,-19.05044 -14.85389,-45.80668 -3.08653,-14.34135 -5.59433,-38.528983 -1.73617,-16.267793 -2.89361,-16.267793 -0.38582,0 -2.314893,16.909942 -2.50781,22.689284 -6.17306,40.669484 -5.59432,27.18434 -14.85389,48.16123 -9.259571,20.97689 -24.885098,37.67278 -12.153186,13.05705 -26.23545,21.61905 -3.279432,1.92644 -4.436878,1.92644 l -0.578723,-0.4281 1.736169,-2.56859 q 12.153187,-12.4149 24.306374,-24.8298 12.924818,-16.05374 20.255311,-32.74963 11.188649,-25.90004 16.20425,-59.93398 4.243965,-28.682684 4.243965,-62.71662 4.8227,0 15.818443,2.782649 11.18865,2.568599 11.18865,5.137198 0,1.284299 -4.24397,4.066948 -4.24397,2.782649 -4.24397,4.280999 0,8.561996 0.77163,16.053743 1.54326,15.625643 5.98014,32.321533 5.59432,21.61904 15.62552,40.24138 12.34609,22.90335 27.19999,38.74304 10.80283,11.34465 22.3773,18.62234 5.78723,3.63885 10.60992,5.35125 0.38582,0.21405 0.77163,0.64215 0,0.21405 0.19291,0.4281 z"
       id="text2"
       style="font-size:245.549px;font-family:AppleMyungjo;-inkscape-font-specification:AppleMyungjo;stroke-width:0.242567"
       aria-label="人" />
  </g>
</svg>
