<?xml version="1.0" encoding="UTF-8" standalone="no"?>
<!-- Created with Inkscape (http://www.inkscape.org/) -->

<svg
   width="210mm"
   height="297mm"
   viewBox="0 0 210 297"
   version="1.1"
   id="svg1"
   xml:space="preserve"
   inkscape:version="1.3.2 (091e20e, 2023-11-25)"
   sodipodi:docname="A.svg"
   xmlns:inkscape="http://www.inkscape.org/namespaces/inkscape"
   xmlns:sodipodi="http://sodipodi.sourceforge.net/DTD/sodipodi-0.dtd"
   xmlns="http://www.w3.org/2000/svg"
   xmlns:svg="http://www.w3.org/2000/svg"><sodipodi:namedview
     id="namedview1"
     pagecolor="#ffffff"
     bordercolor="#000000"
     borderopacity="0.25"
     inkscape:showpageshadow="2"
     inkscape:pageopacity="0.0"
     inkscape:pagecheckerboard="0"
     inkscape:deskcolor="#d1d1d1"
     inkscape:document-units="mm"
     inkscape:zoom="0.5852904"
     inkscape:cx="396.38442"
     inkscape:cy="561.25984"
     inkscape:window-width="1600"
     inkscape:window-height="872"
     inkscape:window-x="0"
     inkscape:window-y="28"
     inkscape:window-maximized="0"
     inkscape:current-layer="layer1" /><defs
     id="defs1" /><g
     inkscape:label="图层 1"
     inkscape:groupmode="layer"
     id="layer1"><path
       style="fill:#000000"
       d="m 98.301797,146.22334 c -4.894342,-0.70091 -7.476523,-1.58187 -10.433381,-3.55954 -6.542968,-4.3762 -10.011543,-12.17363 -9.582381,-21.54138 0.452718,-9.88193 4.085106,-16.98583 10.935539,-21.386751 3.623171,-2.32764 7.319753,-3.35179 12.097916,-3.35179 5.31306,0 9.31686,1.51583 12.6568,4.791841 2.27951,2.23588 3.18445,4.08848 3.33171,6.8207 0.13083,2.42749 -0.1991,3.56819 -1.45717,5.03797 -2.19356,2.56267 -5.51535,2.81638 -7.84921,0.59951 -1.13418,-1.07732 -1.55065,-2.08618 -1.55065,-3.75627 0,-1.57653 0.32874,-2.44133 1.67762,-4.4133 0.98288,-1.43689 0.95392,-1.9813 -0.17171,-3.22723 -1.83119,-2.02691 -5.39676,-2.833521 -9.074023,-2.05274 -5.055457,1.07342 -8.417875,4.97722 -10.286072,11.94223 -0.671148,2.50217 -0.710668,2.98343 -0.727851,8.86354 -0.01647,5.63601 0.03828,6.44048 0.585203,8.59896 1.737128,6.85567 5.802997,11.19492 11.28576,12.04458 3.055833,0.47356 6.362133,-0.21601 8.677743,-1.80986 2.25938,-1.55514 4.75849,-4.79909 5.89737,-7.65504 0.24663,-0.61846 0.58432,-1.12267 0.75042,-1.12046 0.67485,0.009 2.66237,0.72712 2.75138,0.99415 0.0525,0.15749 -0.26954,1.1582 -0.71565,2.22378 -2.26739,5.41599 -6.20345,9.4971 -10.67543,11.06888 -2.39178,0.84064 -5.83069,1.21663 -8.123933,0.88822 z"
       id="path1" /></g></svg>
