<?xml version="1.0" encoding="UTF-8" standalone="no"?>
<!-- Created with Inkscape (http://www.inkscape.org/) -->

<svg
   width="210mm"
   height="297mm"
   viewBox="0 0 210 297"
   version="1.1"
   id="svg1"
   inkscape:version="1.3.2 (091e20e, 2023-11-25)"
   sodipodi:docname="A.svg"
   xmlns:inkscape="http://www.inkscape.org/namespaces/inkscape"
   xmlns:sodipodi="http://sodipodi.sourceforge.net/DTD/sodipodi-0.dtd"
   xmlns="http://www.w3.org/2000/svg"
   xmlns:svg="http://www.w3.org/2000/svg">
  <sodipodi:namedview
     id="namedview1"
     pagecolor="#ffffff"
     bordercolor="#000000"
     borderopacity="0.25"
     inkscape:showpageshadow="2"
     inkscape:pageopacity="0.0"
     inkscape:pagecheckerboard="0"
     inkscape:deskcolor="#d1d1d1"
     inkscape:document-units="mm"
     inkscape:zoom="0.61023429"
     inkscape:cx="384.27864"
     inkscape:cy="521.93069"
     inkscape:window-width="1440"
     inkscape:window-height="900"
     inkscape:window-x="0"
     inkscape:window-y="0"
     inkscape:window-maximized="0"
     inkscape:current-layer="layer1" />
  <defs
     id="defs1" />
  <g
     inkscape:label="图层 1"
     inkscape:groupmode="layer"
     id="layer1">
    <path
       d="M 2.928301,19.252378 V 4.8072479 l 193.139629,-2.3038858 4.9523,94.5945899 -11.22521,0.133995 Q 183.19196,55.115591 169.65566,36.270308 156.11941,17.425025 131.68806,17.716458 L 83.815842,18.287504 Q 71.930321,18.429286 71.930321,32.494276 V 132.4698 l 21.1298,-0.25206 q 18.158429,-0.21662 28.393189,-14.40367 10.23475,-14.18708 10.23475,-42.317098 l 11.55535,-0.13788 V 205.74543 l -11.55535,0.13773 q 0,-60.06135 -40.27871,-59.58087 l -19.479029,0.23234 v 111.3796 q 0,12.54444 15.517194,12.35934 l 37.967615,-0.4529 q 61.73866,-0.73646 70.6528,-90.93479 l 11.88552,-0.14177 -3.96187,104.58442 -201.063279,2.3984 v -14.44512 l 16.50766,-0.19691 q 17.828272,-0.21267 17.828272,-15.41807 V 32.907793 q 0,-14.064993 -14.52674,-13.891712 z"
       id="text2"
       style="font-size:156.633px;font-family:AppleMyungjo;-inkscape-font-specification:AppleMyungjo;stroke-width:0.613378"
       aria-label="E" />
  </g>
</svg>
