<?xml version="1.0" encoding="UTF-8" standalone="no"?>
<!-- Created with Inkscape (http://www.inkscape.org/) -->

<svg
   width="210mm"
   height="297mm"
   viewBox="0 0 210 297"
   version="1.1"
   id="svg1"
   inkscape:version="1.3.2 (091e20e, 2023-11-25)"
   sodipodi:docname="A.svg"
   xmlns:inkscape="http://www.inkscape.org/namespaces/inkscape"
   xmlns:sodipodi="http://sodipodi.sourceforge.net/DTD/sodipodi-0.dtd"
   xmlns="http://www.w3.org/2000/svg"
   xmlns:svg="http://www.w3.org/2000/svg">
  <sodipodi:namedview
     id="namedview1"
     pagecolor="#ffffff"
     bordercolor="#000000"
     borderopacity="0.25"
     inkscape:showpageshadow="2"
     inkscape:pageopacity="0.0"
     inkscape:pagecheckerboard="0"
     inkscape:deskcolor="#d1d1d1"
     inkscape:document-units="mm"
     inkscape:zoom="0.61023429"
     inkscape:cx="397.38836"
     inkscape:cy="561.25984"
     inkscape:window-width="1440"
     inkscape:window-height="900"
     inkscape:window-x="0"
     inkscape:window-y="0"
     inkscape:window-maximized="0"
     inkscape:current-layer="layer1" />
  <defs
     id="defs1" />
  <g
     inkscape:label="图层 1"
     inkscape:groupmode="layer"
     id="layer1">
    <path
       id="text2"
       style="font-size:227.189px;font-family:AppleMyungjo;-inkscape-font-specification:AppleMyungjo;stroke-width:0.322265"
       inkscape:transform-center-x="-80.665888"
       inkscape:transform-center-y="6.9216278"
       d="M 34.652424,200.15902 102.13122,29.499719 h 8.83649 l 71.22763,183.996311 q 4.01659,11.15953 17.40524,11.15953 h 6.15878 v 10.34299 h -78.99304 v -10.34299 h 6.42656 q 20.88628,0 20.88628,-8.43768 0,-2.44966 -1.07108,-4.89932 L 136.67392,168.3135 H 58.216446 l -9.104281,24.76873 q -2.409957,6.53242 -2.677731,8.16552 -1.07109,4.08276 -1.07109,8.16552 0,5.98804 6.426551,10.61518 6.694324,4.62711 17.673016,4.62711 h 6.694324 v 10.34299 H 4.3940776 v -10.34299 h 2.1421845 q 18.4763349,0 28.1161619,-24.49654 z M 132.65734,157.97052 98.114619,68.422016 62.768586,157.97052 Z" />
  </g>
</svg>
