<?xml version="1.0" encoding="UTF-8" standalone="no"?>
<!-- Created with Inkscape (http://www.inkscape.org/) -->

<svg
   width="210mm"
   height="297mm"
   viewBox="0 0 210 297"
   version="1.1"
   id="svg1"
   inkscape:version="1.3.2 (091e20e, 2023-11-25)"
   sodipodi:docname="A.svg"
   xmlns:inkscape="http://www.inkscape.org/namespaces/inkscape"
   xmlns:sodipodi="http://sodipodi.sourceforge.net/DTD/sodipodi-0.dtd"
   xmlns="http://www.w3.org/2000/svg"
   xmlns:svg="http://www.w3.org/2000/svg">
  <sodipodi:namedview
     id="namedview1"
     pagecolor="#ffffff"
     bordercolor="#000000"
     borderopacity="0.25"
     inkscape:showpageshadow="2"
     inkscape:pageopacity="0.0"
     inkscape:pagecheckerboard="0"
     inkscape:deskcolor="#d1d1d1"
     inkscape:document-units="mm"
     inkscape:zoom="0.61023429"
     inkscape:cx="397.38836"
     inkscape:cy="561.25984"
     inkscape:window-width="1440"
     inkscape:window-height="900"
     inkscape:window-x="0"
     inkscape:window-y="0"
     inkscape:window-maximized="0"
     inkscape:current-layer="layer1" />
  <defs
     id="defs1" />
  <g
     inkscape:label="图层 1"
     inkscape:groupmode="layer"
     id="layer1">
     <path
       style="font-size:208.684px;font-family:AppleMyungjo;-inkscape-font-specification:AppleMyungjo;stroke-width:0.243032"
       d="m 192.78001,146.78833 h -75.81099 v 71.32755 q 0,6.11378 -3.66827,9.88395 -3.56638,3.77017 -8.86499,4.48345 -5.298622,0.71328 -22.722921,0.71328 l -5.400514,-16.50724 q 10.902924,0.91707 15.284473,0.91707 5.909996,0 7.438444,-0.81517 1.528448,-0.81517 1.528448,-3.26069 v -66.7422 H 29.134251 L 36.470798,69.347004 Q 108.40972,68.124246 160.58072,47.031674 l 11.7181,14.367404 Q 121.24868,80.249928 50.838203,83.714409 L 46.252861,131.50386 H 100.56369 V 89.420612 h 16.40533 v 42.083248 h 75.81099 z"
       transform="scale(0.98154161,1.0188055)"
       id="text2" />
    <path
       style="font-size:208.684px;font-family:AppleMyungjo;-inkscape-font-specification:AppleMyungjo;stroke-width:0.243032"
       d="m 198.7919,206.09209 -11.00482,11.41241 q -24.14947,-26.39119 -60.7303,-50.64256 l 8.96689,-11.10671 q 41.47187,24.45515 62.76823,50.33686 z"
       transform="scale(0.98154161,1.0188055)"
       id="path3" />
    <path
       style="font-size:208.684px;font-family:AppleMyungjo;-inkscape-font-specification:AppleMyungjo;stroke-width:0.243032"
       d="M 88.6418,164.31453 Q 78.248358,176.8478 59.295612,192.13227 40.342865,207.41674 22.918566,215.87415 L 12.62702,203.13709 q 36.784632,-16.20154 64.092891,-48.60462 z"
       transform="scale(0.98154161,1.0188055)"
       id="path2" />
  </g>
</svg>
