<?xml version="1.0" encoding="UTF-8" standalone="no"?>
<!-- Created with Inkscape (http://www.inkscape.org/) -->

<svg
   width="210mm"
   height="297mm"
   viewBox="0 0 210 297"
   version="1.1"
   id="svg1"
   inkscape:version="1.3.2 (091e20e, 2023-11-25)"
   sodipodi:docname="A.svg"
   xmlns:inkscape="http://www.inkscape.org/namespaces/inkscape"
   xmlns:sodipodi="http://sodipodi.sourceforge.net/DTD/sodipodi-0.dtd"
   xmlns="http://www.w3.org/2000/svg"
   xmlns:svg="http://www.w3.org/2000/svg">
  <sodipodi:namedview
     id="namedview1"
     pagecolor="#ffffff"
     bordercolor="#000000"
     borderopacity="0.25"
     inkscape:showpageshadow="2"
     inkscape:pageopacity="0.0"
     inkscape:pagecheckerboard="0"
     inkscape:deskcolor="#d1d1d1"
     inkscape:document-units="mm"
     inkscape:zoom="0.61023429"
     inkscape:cx="328.56233"
     inkscape:cy="500.62739"
     inkscape:window-width="1440"
     inkscape:window-height="900"
     inkscape:window-x="0"
     inkscape:window-y="0"
     inkscape:window-maximized="0"
     inkscape:current-layer="layer1" />
  <defs
     id="defs1" />
  <g
     inkscape:label="图层 1"
     inkscape:groupmode="layer"
     id="layer1">
    <path
       d="m 191.59453,217.81218 q 0,1.50974 -3.30373,2.26462 -3.1202,0.75486 -6.97456,0.75486 h -72.68222 q -25.695734,0 -50.106681,0 -24.410948,0 -26.613438,0.37743 -2.018951,0.37744 -3.854361,0.75488 -1.284787,0 -2.569573,-0.94359 -1.284787,-0.75487 -2.753115,-2.26461 -1.468328,-1.50974 -2.01895,-2.45333 -0.183541,-0.18872 -0.367082,-0.94359 1.468328,0.18873 2.386032,0.18873 6.423934,0.75486 8.075802,0.75486 h 68.460772 l 0.36709,-49.06655 H 82.754745 q -6.423933,0 -12.664326,0 -6.056852,0 -8.259342,0.37743 -2.202492,0.37745 -3.854361,0.75488 -1.284787,0 -2.569573,-0.75488 -1.284787,-0.94358 -2.753115,-2.45332 -1.468328,-1.50974 -2.01895,-2.45333 -0.183541,-0.18871 -0.367082,-0.94358 2.386032,0.37743 5.322688,0.56615 2.936655,0.18872 5.139146,0.18872 l 38.910686,-0.18872 0.18354,-43.21631 H 56.324848 q 0,3.39692 -12.113703,22.83482 -12.113704,19.24918 -15.050359,19.24918 l -0.367082,-0.37743 0.550622,-1.50974 q 8.259344,-14.34253 15.417441,-34.91274 8.259344,-23.58968 8.259344,-36.988625 0,-4.340503 -0.183542,-6.03896 0,-0.377435 -0.367082,-1.321022 2.753114,0 11.195999,3.208198 8.626425,3.208196 8.626425,5.284089 0,1.321023 -3.120196,3.208197 -3.120197,1.698458 -3.303737,2.642045 0,1.132305 -2.202492,6.793828 -2.753115,6.60512 -5.322688,13.21023 H 99.824056 L 100.0076,87.78583 q 0,-2.830762 0,-4.906655 0,-2.075892 0,-3.208197 0,-2.830762 0,-5.850243 -0.367084,-3.208197 -0.367084,-4.340502 -0.734169,-5.850242 -1.284788,-7.926135 -0.36708,-2.264609 -0.734169,-3.585632 3.670821,0 13.031411,2.453328 9.36059,2.453327 9.36059,4.717937 0,1.50974 -4.40499,4.340502 -4.40498,2.830762 -4.40498,3.963068 V 114.395 h 41.11318 l 6.97456,-9.05844 q 6.42393,3.20819 8.80996,4.71793 7.15809,4.15179 7.15809,6.22768 0,1.88717 -4.03789,2.45333 -4.0379,0.37743 -5.50623,0.37743 h -54.51167 v 43.21631 h 32.67029 l 7.52518,-9.05844 q 1.65187,0 8.44289,4.3405 6.79102,4.15179 6.79102,6.22768 0,1.50974 -2.01896,2.45333 -2.01895,0.75487 -5.32268,0.75487 h -48.08774 v 49.25526 h 56.16354 l 7.70871,-9.8133 q 1.65187,0 8.99351,4.71793 7.52518,4.71794 7.52518,6.60511 z"
       id="text2"
       style="font-size:190.764px;font-family:AppleMyungjo;-inkscape-font-specification:AppleMyungjo;stroke-width:0.222163"
       aria-label="生" />
  </g>
</svg>
