<?xml version="1.0" encoding="UTF-8" standalone="no"?>
<!-- Created with Inkscape (http://www.inkscape.org/) -->

<svg
   width="210mm"
   height="297mm"
   viewBox="0 0 210 297"
   version="1.1"
   id="svg1"
   inkscape:version="1.3.2 (091e20e, 2023-11-25)"
   sodipodi:docname="A_.svg"
   xmlns:inkscape="http://www.inkscape.org/namespaces/inkscape"
   xmlns:sodipodi="http://sodipodi.sourceforge.net/DTD/sodipodi-0.dtd"
   xmlns="http://www.w3.org/2000/svg"
   xmlns:svg="http://www.w3.org/2000/svg">
  <sodipodi:namedview
     id="namedview1"
     pagecolor="#ffffff"
     bordercolor="#000000"
     borderopacity="0.25"
     inkscape:showpageshadow="2"
     inkscape:pageopacity="0.0"
     inkscape:pagecheckerboard="0"
     inkscape:deskcolor="#d1d1d1"
     inkscape:document-units="mm"
     inkscape:zoom="0.61023429"
     inkscape:cx="344.94948"
     inkscape:cy="535.0404"
     inkscape:window-width="1440"
     inkscape:window-height="900"
     inkscape:window-x="0"
     inkscape:window-y="0"
     inkscape:window-maximized="0"
     inkscape:current-layer="layer1" />
  <defs
     id="defs1" />
  <g
     inkscape:label="图层 1"
     inkscape:groupmode="layer"
     id="layer1">
    <path
       d="m 54.361005,115.9095 q -17.779958,43.04292 -40.21657,69.94477 l -3.809992,-2.33929 Q 36.157714,141.87562 50.76268,63.509401 l 18.414956,10.760734 q 3.386658,1.871431 3.386658,3.508935 0,1.403573 -3.386658,2.105361 -0.846665,0.233929 -3.598326,4.678579 -2.539992,4.444652 -4.444988,10.76073 -1.904996,6.31609 -4.233323,13.80182 h 42.96823 V 85.732655 q 0,-24.562545 -1.058326,-37.428639 l 22.436617,10.058946 q 2.32832,0.935717 2.32832,2.339291 0,1.403574 -2.32832,2.573218 l -5.92666,3.508935 v 42.341154 h 43.81489 l 13.54664,-17.778608 15.23997,20.117898 q 1.48166,1.87143 1.48166,3.275 0,1.16965 -2.32834,1.16965 h -71.75482 v 56.14296 h 32.38492 l 14.60496,-18.4804 15.87497,21.28754 q 1.26999,1.87145 1.26999,3.04108 0,0.93572 -2.53999,0.93572 h -61.59485 v 61.52333 h 56.09154 l 14.18162,-17.7786 15.6633,20.81967 q 1.48166,1.87143 1.48166,2.80714 0,1.16965 -2.75166,1.16965 H 28.326066 q -8.889979,0 -13.969966,2.57323 L 6.7361184,239.19007 q 7.8316486,1.16966 16.9332926,1.16966 H 99.869229 V 178.8364 H 57.535997 q -8.678313,0 -13.969966,2.33928 l -7.619982,-10.52681 q 7.831647,1.40359 16.933292,1.40359 H 99.869229 V 115.9095 Z"
       id="text1"
       style="font-size:215.467px;font-family:'Songti TC';-inkscape-font-specification:'Songti TC';stroke-width:1.15894"
       aria-label="生" />
  </g>
</svg>
