<?xml version="1.0" encoding="UTF-8" standalone="no"?>
<!-- Created with Inkscape (http://www.inkscape.org/) -->

<svg
   width="720"
   height="1280"
   viewBox="0 0 190.5 338.66667"
   version="1.1"
   id="svg1"
   inkscape:version="1.3.2 (091e20e, 2023-11-25)"
   sodipodi:docname="chunhua.svg"
   xmlns:inkscape="http://www.inkscape.org/namespaces/inkscape"
   xmlns:sodipodi="http://sodipodi.sourceforge.net/DTD/sodipodi-0.dtd"
   xmlns="http://www.w3.org/2000/svg"
   xmlns:svg="http://www.w3.org/2000/svg">
  <sodipodi:namedview
     id="namedview1"
     pagecolor="#ffffff"
     bordercolor="#000000"
     borderopacity="0.25"
     inkscape:showpageshadow="2"
     inkscape:pageopacity="0.0"
     inkscape:pagecheckerboard="0"
     inkscape:deskcolor="#d1d1d1"
     inkscape:document-units="mm"
     showgrid="true"
     inkscape:zoom="0.51328125"
     inkscape:cx="351.65906"
     inkscape:cy="624.414"
     inkscape:window-width="1440"
     inkscape:window-height="872"
     inkscape:window-x="0"
     inkscape:window-y="28"
     inkscape:window-maximized="0"
     inkscape:current-layer="layer1">
    <inkscape:grid
       id="grid1"
       units="mm"
       originx="0"
       originy="0"
       spacingx="1"
       spacingy="1"
       empcolor="#0099e5"
       empopacity="0.30196078"
       color="#0099e5"
       opacity="0.14901961"
       empspacing="5"
       dotted="false"
       gridanglex="30"
       gridanglez="30"
       visible="true" />
  </sodipodi:namedview>
  <defs
     id="defs1" />
  <g
     inkscape:label="图层 1"
     inkscape:groupmode="layer"
     id="layer1">
    <path
       style="font-size:50.8px;font-family:'Songti SC';-inkscape-font-specification:'Songti SC';fill:#ff0000;stroke-width:0.264583"
       d="m 68.384533,67.583896 v -5.9944 H 52.788934 v 5.9944 z"
       id="path9" />
    <path
       style="font-size:50.8px;font-family:'Songti SC';-inkscape-font-specification:'Songti SC';fill:#ff0000;stroke-width:0.264583"
       d="m 68.384533,60.167096 v -5.8928 H 52.788934 v 5.8928 z"
       id="path8" />
    <path
       style="font-size:50.8px;font-family:'Songti SC';-inkscape-font-specification:'Songti SC';fill:#ff0000;stroke-width:0.264583"
       d="m 69.502133,52.851896 q -1.9304,-2.3876 -3.9116,-5.7404 h -10.16 q -1.8288,3.048 -4.013199,5.5372 l 0.254,0.2032 z"
       id="path7" />
    <path
       style="font-size:50.8px;font-family:'Songti SC';-inkscape-font-specification:'Songti SC';fill:#ff0000;stroke-width:0.264583"
       d="m 66.708133,47.111496 q 7.9248,8.89 18.796,10.1092 v 0.762 q -1.27,0.3556 -2.0828,1.1684 -0.8128,0.762 -0.9652,1.5748 -0.1016,0.6604 -0.7112,0.6604 -0.6096,0 -4.064,-1.8796 -3.4036,-1.8796 -5.8928,-4.318 v 7.7724 q 0,1.8288 0.1524,4.3688 l 0.254,3.7592 q 0,0.9144 -1.524,1.5748 -1.4732,0.7112 -1.8796,0.7112 -0.4064,0 -0.4064,-0.6604 v -3.7084 H 52.788934 v 1.8288 q 0,0.6096 -0.3048,0.9652 -0.3048,0.4064 -1.3716,0.9144 -1.016,0.508 -1.4732,0.508 -0.4064,0 -0.4064,-0.9652 l 0.1016,-2.6416 q 0.0508,-1.5748 0.0508,-4.8768 v -9.8044 q -5.334,5.334 -12.5476,8.9408 l -0.4572,-0.6604 q 10.4648,-7.1628 15.6464,-16.1036 h -8.0264 q -2.1336,0 -3.4544,0.5588 l -1.8288,-2.2352 q 1.8796,0.254 4.2164,0.254 h 9.906 q 1.320799,-2.4384 2.336799,-5.08 h -5.587999 q -2.1336,0 -3.4544,0.5588 l -1.8288,-2.286 q 1.8796,0.3048 4.2164,0.3048 h 7.111999 q 1.0668,-3.1496 1.524,-5.588 H 46.489734 q -2.1336,0 -3.4544,0.508 l -1.8796,-2.2352 q 1.9304,0.254 4.2164,0.254 h 12.090399 q 0.7112,-3.81 0.8636,-7.2644 l 4.7244,1.4224 q 0.8636,0.254 0.8636,0.6096 0,0.3048 -0.762,0.762 -1.0668,0.7112 -1.9304,4.4704 h 12.9032 l 3.048,-3.6068 3.556,4.1656 q 0.3048,0.4064 0.3048,0.6604 0,0.254 -0.7112,0.254 h -19.4056 q -0.6604,2.8448 -1.6256,5.588 h 10.0584 l 2.794,-3.4036 3.3528,3.9116 q 0.3556,0.4064 0.3556,0.6604 0,0.254 -0.7112,0.254 h -16.4084 q -1.0668,2.6416 -2.4892,5.08 h 18.6944 l 3.302,-4.0132 3.8608,4.572 q 0.3048,0.4064 0.3048,0.6604 0,0.2032 -0.7112,0.2032 z"
       id="text1" />
    <path
       style="font-size:50.8px;font-family:'Songti SC';-inkscape-font-specification:'Songti SC';fill:#ff0000;stroke-width:0.264583"
       d="m 65.009305,111.45611 q 5.8928,-4.7752 9.702799,-9.4996 l 3.302,3.2004 q 0.3048,0.3556 0.3048,0.6096 0,0.2032 -0.7112,0.3048 -1.4732,0.1016 -2.4384,0.9144 -5.486399,4.4196 -10.159999,7.5184 v 8.9916 q 0,0.9144 0.4064,1.1684 0.4064,0.3048 2.4892,0.4572 2.0828,0.1524 4.0132,0.1524 4.216399,0 5.486399,-0.5588 1.27,-0.5588 1.8796,-9.144 h 0.9144 q -0.0508,5.0292 0.2032,6.5532 0.3048,1.4732 1.3716,2.3368 0.508,0.4064 0.508,0.8128 0,0.4572 -1.5748,1.7272 -1.524,1.3208 -8.737599,1.3208 -1.9304,0.0508 -5.0292,-0.1016 -3.0988,-0.1524 -4.2672,-1.1176 -1.1176,-0.9652 -1.1176,-2.6416 v -7.874 q -4.9784,2.6924 -9.8044,4.1656 l -0.2032,-0.8636 q 5.1308,-2.4384 10.0076,-5.842 v -6.0452 q 0,-4.064 -0.254,-8.382003 l 4.7244,2.336803 q 0.508,0.2032 0.508,0.5588 0,0.3048 -0.508,0.5588 l -1.016,0.6604 z"
       id="path11" />
    <path
       style="font-size:50.8px;font-family:'Songti SC';-inkscape-font-specification:'Songti SC';fill:#ff0000;stroke-width:0.264583"
       d="m 46.975305,111.20211 q -4.5212,5.9436 -10.3632,9.9568 l -0.6604,-0.508 q 9.4996,-9.906 14.5796,-21.437603 l 3.2004,2.082803 q 0.762,0.4064 0.762,0.8128 0,0.3556 -0.762,0.6096 -0.762,0.254 -1.778,1.778 -1.016,1.4732 -1.6256,2.1844 v 11.43 q 0,5.1308 0.1016,7.2644 0.1016,2.1336 0.1016,2.286 0,0.9652 -1.5748,1.778 -1.524,0.8636 -1.9304,0.8636 -0.4064,0 -0.4064,-1.1684 0.3556,-9.652 0.3556,-12.192 z"
       id="path10" />
    <path
       style="font-size:50.8px;font-family:'Songti SC';-inkscape-font-specification:'Songti SC';fill:#ff0000;stroke-width:0.264583"
       d="m 67.701705,91.745708 h 7.924799 l 3.1496,-3.81 3.4544,4.318 q 0.3048,0.4572 0.3048,0.7112 0,0.2032 -0.7112,0.2032 H 67.701705 q 0,2.2352 0.0508,3.1496 0.1016,0.914399 0.1016,1.066799 0,0.6604 -1.4732,1.3208 -1.4732,0.6604 -1.8796,0.6604 -0.5588,0 -0.5588,-0.7112 0,-0.7112 0.0508,-1.8796 0.1016,-1.219199 0.1016,-3.606799 h -9.9568 q 0,1.9304 0.0508,2.794 0.1016,0.863599 0.1016,0.965199 0,0.9144 -1.27,1.3716 -1.27,0.4572 -2.032,0.4572 -0.7112,0 -0.6096,-1.3716 0.2032,-2.082799 0.2032,-4.216399 h -9.906 q -2.0828,0 -3.4544,0.5588 l -1.778,-2.286 q 1.8796,0.3048 4.2164,0.3048 h 10.922 v -3.4544 q 0,-2.0828 -0.2032,-4.7752 l 4.572,2.032 q 0.6604,0.3048 0.6604,0.5588 0,0.254 -0.4572,0.5588 l -1.016,0.762 v 4.318 h 9.9568 v -3.4544 q 0,-2.0828 -0.1524,-4.7752 l 4.7244,2.1336 q 0.6604,0.254 0.6604,0.5588 0,0.3048 -0.5588,0.7112 l -1.0668,0.762 z"
       id="text2" />
    <path
       style="font-size:50.8px;font-family:'Songti SC';-inkscape-font-specification:'Songti SC';fill:#ff0000;stroke-width:0.264583"
       d="m 62.397606,152.48945 q 0.8128,5.3848 0.8128,7.6708 0,2.286 -0.9144,3.81 -0.9144,1.4732 -2.4384,1.4732 -0.8128,0 -1.4732,-0.4572 -0.6096,-0.508 -0.6096,-1.4732 0,-0.9652 0.8128,-1.8288 2.794,-3.2004 2.8956,-9.1948 z"
       id="path13" />
    <path
       style="font-size:50.8px;font-family:'Songti SC';-inkscape-font-specification:'Songti SC';fill:#ff0000;stroke-width:0.264583"
       d="m 50.713606,161.07465 q 3.9116,1.4224 5.2324,2.6416 1.3716,1.1684 1.3716,2.5908 0,1.3716 -0.6096,2.1844 -0.6096,0.8128 -1.6256,0.8128 -0.9652,0 -1.3716,-1.524 -0.8128,-3.1496 -2.9972,-5.2832 v 13.716 q 0,3.8608 0.0508,5.5372 l 0.1016,2.4892 q 0,0.7112 -1.4732,1.27 -1.4224,0.6096 -1.8796,0.6096 -0.4064,0 -0.4064,-1.016 l 0.1524,-3.2004 q 0.0508,-1.9812 0.0508,-5.7912 v -13.4112 q -3.8608,9.3472 -9.0424,14.6304 l -0.5588,-0.4064 q 6.2484,-10.922 8.7376,-21.2852 h -3.8608 q -2.0828,0 -3.4036,0.5588 l -1.778,-2.1844 q 1.8796,0.254 4.1148,0.254 h 5.7912 v -7.5692 q -4.6736,0.8128 -8.89,1.2192 l -0.1524,-0.9144 q 7.3152,-1.9812 10.7188,-3.2512 3.4036,-1.27 6.7564,-3.3528 l 2.7432,3.5052 q 0.508,0.6096 0.508,1.016 0,0.4064 -0.9652,0.254 -0.3556,-0.0508 -0.762,-0.0508 -1.1684,0 -6.5532,1.016 v 8.128 h 3.0988 l 2.8448,-3.3528 2.9972,3.7084 q 0.3556,0.4572 0.3556,0.762 0,0.254 -0.7112,0.254 h -8.5852 z"
       id="path12" />
    <path
       style="font-size:50.8px;font-family:'Songti SC';-inkscape-font-specification:'Songti SC';fill:#ff0000;stroke-width:0.264583"
       d="m 69.458806,158.89025 q -0.5588,6.096 -1.1176,9.3472 -0.508,3.2512 -2.1844,6.4008 -1.6256,3.0988 -4.9784,5.8928 -3.3528,2.8448 -9.4996,5.842 l -0.5588,-0.6096 q 5.8928,-4.2164 8.4836,-6.858 2.5908,-2.5908 3.9116,-5.7912 1.3208,-3.2512 2.1844,-9.4488 0.9144,-6.1976 0.9144,-16.4084 0,-3.7592 -0.1016,-8.1788 l 5.0292,1.778 q 0.6604,0.254 0.6604,0.6604 0,0.3556 -0.6604,0.762 -0.6096,0.3556 -0.8128,1.27 -0.1524,0.8636 -0.4064,3.4544 l -0.3048,5.0292 q 0,0.7112 0.4064,3.5052 0.4572,2.7432 1.2192,5.588 5.1816,-7.4168 7.0612,-11.4808 l 3.606799,3.1496 q 0.6096,0.508 0.6096,0.9144 0,0.3556 -0.9144,0.508 -0.863599,0.1524 -2.539999,1.4732 -1.6256,1.3208 -7.4676,6.7056 4.2672,13.5128 13.512799,19.2024 v 0.5588 q -2.9464,0.3048 -3.81,2.1336 -0.254,0.5588 -0.558799,0.5588 -0.762,0 -4.0132,-4.1148 -3.2004,-4.1148 -5.08,-9.1948 -1.8288,-5.1308 -2.5908,-12.6492 z"
       id="text3" />
    <path
       style="font-size:50.8px;font-family:'Songti SC';-inkscape-font-specification:'Songti SC';fill:#ff0000;stroke-width:0.264583"
       d="m 69.901061,213.75021 h -17.3736 v 9.0932 h 17.3736 z"
       id="path15" />
    <path
       style="font-size:50.8px;font-family:'Songti SC';-inkscape-font-specification:'Songti SC';fill:#ff0000;stroke-width:0.264583"
       d="m 52.527461,212.32781 h 17.3736 v -8.9408 h -17.3736 z"
       id="path14" />
    <path
       style="font-size:50.8px;font-family:'Songti SC';-inkscape-font-specification:'Songti SC';fill:#ff0000;stroke-width:0.264583"
       d="m 69.901061,224.26581 h -17.3736 q -0.1524,6.8072 -3.4036,11.5824 -3.2512,4.7752 -10.3632,8.6868 l -0.6604,-0.7112 q 5.6388,-4.3688 8.128,-8.7376 2.54,-4.3688 2.54,-13.7668 v -16.256 q 0,-2.6416 -0.1524,-5.3848 l 4.064,2.286 h 15.9004 l 2.3876,-3.048 4.318,3.4036 q 0.3556,0.3556 0.3556,0.6096 0,0.2032 -0.5588,0.508 l -1.524,0.7112 v 34.1884 q 0,2.1844 -0.7112,3.2004 -0.6604,1.0668 -2.3876,2.032 -1.6764,1.016 -2.1844,1.016 -0.508,0 -0.6604,-0.8128 -0.2032,-2.032 -1.9812,-2.8956 -1.7272,-0.8128 -5.2832,-1.524 v -0.9652 q 3.6068,0.254 5.842,0.254 2.286,0 2.9972,-0.4572 0.7112,-0.4572 0.7112,-1.6256 z"
       id="text4" />
    <path
       style="font-size:50.8px;font-family:'Songti SC';-inkscape-font-specification:'Songti SC';fill:#ff0000;stroke-width:0.264583"
       d="m 62.157036,285.86722 v -12.4968 h -6.8072 v 12.4968 z"
       id="path18" />
    <path
       style="font-size:50.8px;font-family:'Songti SC';-inkscape-font-specification:'Songti SC';fill:#ff0000;stroke-width:0.264583"
       d="m 55.553036,271.94802 h 6.5024 l 1.6256,-2.54 3.6576,2.6924 q 0.254,0.2032 0.254,0.4572 0,0.2032 -0.6604,0.6604 l -1.27,0.9652 v 8.7376 q 0,2.032 0.1524,3.9116 0.1524,1.8796 0.1524,1.9304 0,1.016 -1.4732,1.5748 -1.4224,0.508 -1.8796,0.508 -0.4572,0 -0.4572,-0.5588 v -2.9972 h -6.8072 v 3.0988 q 0,1.2192 -1.4732,1.8796 -1.4224,0.6604 -1.8796,0.6604 -0.4064,0 -0.5588,-0.3556 -0.1524,-0.3556 0,-1.4224 0.3556,-3.6576 0.3556,-7.62 v -8.2804 q 0,-4.5212 -0.1016,-6.1976 z"
       id="path17" />
    <path
       style="font-size:50.8px;font-family:'Songti SC';-inkscape-font-specification:'Songti SC';fill:#ff0000;stroke-width:0.264583"
       d="m 72.317036,264.37882 h -18.3896 q -2.0828,0 -3.4544,0.5588 l -1.9304,-2.2352 q 1.9304,0.254 4.2672,0.254 h 21.9964 l 2.8448,-3.556 3.556,3.9624 q 0.4572,0.4064 0.4572,0.7112 0,0.3048 -0.8636,0.3048 h -4.8768 v 33.5788 q 0,1.6256 -0.508,2.3876 -0.4572,0.762 -2.794,2.0828 -2.286,1.3208 -2.6924,1.3208 -0.4064,0 -0.508,-0.254 -0.0508,-0.254 -0.0508,-1.1176 0,-1.8288 -2.032,-2.7432 -1.9812,-0.9144 -5.0292,-1.4732 l 0.2032,-1.0668 q 3.556,0.6604 5.9436,0.6604 3.8608,0 3.8608,-1.4224 z"
       id="path16" />
    <path
       style="font-size:50.8px;font-family:'Songti SC';-inkscape-font-specification:'Songti SC';fill:#ff0000;stroke-width:0.264583"
       d="m 42.192636,273.87842 q -3.302,4.9784 -7.3152,9.0424 l -0.762,-0.8128 q 9.2964,-13.3096 12.0904,-26.7716 l 4.6228,2.1844 q 0.6604,0.3556 0.6604,0.8636 0,0.508 -0.762,0.762 -0.762,0.254 -1.4732,1.0668 -0.6604,0.762 -0.9652,1.778 -1.6256,4.3688 -4.064,8.5852 l 2.3876,0.9652 q 0.508,0.2032 0.508,0.5588 0,0.3048 -0.508,0.8636 l -0.8636,0.8128 v 17.9832 q 0,5.2832 0.1016,7.3152 0.1016,2.0828 0.1016,2.286 0,1.2192 -1.6764,1.8796 -1.6256,0.7112 -2.0828,0.7112 -0.4572,0 -0.4572,-0.9652 l 0.3048,-5.4356 q 0.1524,-3.6576 0.1524,-6.9088 z"
       id="text5" />
    <path
       style="font-size:50.8px;font-family:'Songti SC';-inkscape-font-specification:'Songti SC';fill:#ff0000;stroke-width:0.264583"
       d="m 127.0142,109.05658 q 6.604,4.4704 6.604,8.0264 0,1.27 -0.8128,2.54 -0.762,1.27 -1.7272,1.27 -0.9144,0 -1.2192,-0.6604 -0.254,-0.6604 -0.4064,-2.54 -0.1016,-1.8796 -0.8636,-4.1148 -0.762,-2.286 -2.032,-3.9624 z"
       id="path22" />
    <path
       style="font-size:50.8px;font-family:'Songti SC';-inkscape-font-specification:'Songti SC';fill:#ff0000;stroke-width:0.264583"
       d="m 118.6322,124.09338 v -12.7 h -7.2644 v 12.7 z"
       id="path21" />
    <path
       style="font-size:50.8px;font-family:'Songti SC';-inkscape-font-specification:'Songti SC';fill:#ff0000;stroke-width:0.264583"
       d="M 118.6322,110.02178 V 98.286977 h -7.2644 v 11.734803 z"
       id="path20" />
    <path
       style="font-size:50.8px;font-family:'Songti SC';-inkscape-font-specification:'Songti SC';fill:#ff0000;stroke-width:0.264583"
       d="m 112.079,96.864577 h 6.5024 l 1.5748,-2.286 3.2512,2.9464 q 0.4064,0.3556 0.4064,0.6096 0,0.254 -0.4064,0.508 l -1.27,0.761999 v 22.199604 q 0,1.8796 0.1016,3.4544 l 0.1524,2.2352 q 0,0.9652 -1.4732,1.6256 -1.4732,0.6604 -1.8796,0.6604 -0.4064,0 -0.4064,-0.6604 v -3.4036 h -7.2644 v 2.9972 q 0,1.1684 -1.4732,1.8288 -1.4224,0.6604 -1.8796,0.6604 -0.4064,0 -0.5588,-0.3556 -0.1524,-0.3556 -0.0508,-1.3716 0.4572,-4.1656 0.4572,-7.9756 v -20.7264 q 0,-3.352803 -0.1524,-6.197603 z"
       id="path19" />
    <path
       style="font-size:50.8px;font-family:'Songti SC';-inkscape-font-specification:'Songti SC';fill:#ff0000;stroke-width:0.264583"
       d="m 143.1686,103.97658 v 25.3492 q 0,2.794 -0.4572,3.81 -0.4572,1.016 -2.6416,2.3368 -2.1844,1.3716 -2.6416,1.3716 -0.4064,0 -0.4572,-0.8636 -0.1524,-2.2352 -1.778,-3.0988 -1.6256,-0.8636 -4.9784,-1.5748 l 0.1016,-0.8128 q 3.302,0.4064 5.334,0.4064 3.8608,0 3.8608,-1.9304 v -24.9936 h -11.3284 q -2.1336,0 -3.4544,0.5588 l -1.8288,-2.1336 q 1.9304,0.254 4.2164,0.254 h 12.3952 v -5.029203 q 0,-3.9624 -0.2032,-8.1788 l 5.2832,1.9304 q 0.4064,0.1524 0.4064,0.4572 0,0.254 -0.5588,0.5588 l -1.27,0.8128 v 9.448803 h 1.8288 l 3.048,-3.606804 3.3528,3.860804 q 0.3048,0.4064 0.3048,0.762 0,0.3048 -0.6604,0.3048 z"
       id="text6" />
    <path
       style="font-size:50.8px;font-family:'Songti SC';-inkscape-font-specification:'Songti SC';fill:#ff0000;stroke-width:0.264583"
       d="m 127.07843,174.53083 11.7856,-9.398 h -27.7876 q -2.0828,0 -3.3528,0.5588 l -1.778,-2.1844 q 1.8796,0.254 4.064,0.254 h 28.2956 l 2.9464,-2.4892 4.0132,4.064 q 0.5588,0.6096 0.5588,0.9652 0,0.3048 -1.3208,0.3048 -1.27,0 -4.3688,1.5748 -3.0988,1.524 -11.938,6.858 0.7112,0.4064 0.7112,0.7112 0,0.254 -0.762,0.6096 l -0.8128,0.4064 v 23.0632 q 0,1.778 -0.5588,2.6924 -0.508,0.9652 -2.5908,2.1336 -2.032,1.2192 -2.54,1.2192 -0.508,0 -0.7112,-1.1176 -0.2032,-1.0668 -2.032,-2.2352 -1.8288,-1.1684 -4.8768,-1.6764 v -0.9144 q 4.2164,0.5588 6.2484,0.5588 2.0828,0 2.6416,-0.4572 0.6096,-0.4572 0.6096,-1.4224 v -17.6784 q 0,-4.6228 -0.2032,-8.0772 z"
       id="text7" />
  </g>
</svg>
