<?xml version="1.0" encoding="UTF-8" standalone="no"?>
<!-- Created with Inkscape (http://www.inkscape.org/) -->

<svg
   width="210mm"
   height="297mm"
   viewBox="0 0 210 297"
   version="1.1"
   id="svg1"
   inkscape:version="1.3.2 (091e20e, 2023-11-25)"
   sodipodi:docname="dragon.svg"
   xmlns:inkscape="http://www.inkscape.org/namespaces/inkscape"
   xmlns:sodipodi="http://sodipodi.sourceforge.net/DTD/sodipodi-0.dtd"
   xmlns="http://www.w3.org/2000/svg"
   xmlns:svg="http://www.w3.org/2000/svg">
  <sodipodi:namedview
     id="namedview1"
     pagecolor="#ffffff"
     bordercolor="#000000"
     borderopacity="0.25"
     inkscape:showpageshadow="2"
     inkscape:pageopacity="0.0"
     inkscape:pagecheckerboard="0"
     inkscape:deskcolor="#d1d1d1"
     inkscape:document-units="mm"
     inkscape:zoom="0.61023429"
     inkscape:cx="397.38836"
     inkscape:cy="561.25984"
     inkscape:window-width="1440"
     inkscape:window-height="900"
     inkscape:window-x="0"
     inkscape:window-y="0"
     inkscape:window-maximized="0"
     inkscape:current-layer="layer1" />
  <defs
     id="defs1" />
  <g
     inkscape:label="图层 1"
     inkscape:groupmode="layer"
     id="layer1">
    <path
       style="font-size:155.448px;font-family:'Songti SC';-inkscape-font-specification:'Songti SC';stroke-width:0.809624"
       d="M 83.85781,158.40726 H 56.965307 v 14.923 H 83.85781 Z"
       transform="scale(1.0177005,0.98260738)"
       id="path7" />
    <path
       style="font-size:155.448px;font-family:'Songti SC';-inkscape-font-specification:'Songti SC';stroke-width:0.809624"
       d="M 56.965307,154.36561 H 83.85781 V 140.68618 H 56.965307 Z"
       transform="scale(1.0177005,0.98260738)"
       id="path6" />
    <path
       style="font-size:155.448px;font-family:'Songti SC';-inkscape-font-specification:'Songti SC';stroke-width:0.809624"
       d="m 57.120755,136.79998 h 25.338023 l 4.352544,-6.68426 9.793224,7.15061 q 1.243584,0.77724 1.243584,1.70993 0,0.77724 -1.243584,1.39903 l -3.419856,1.86537 v 53.47412 q 0,7.4615 -1.709928,10.72591 -1.55448,3.26441 -5.44068,5.28523 -3.730752,2.02082 -5.129784,2.02082 -1.243584,0 -1.865375,-2.95351 -0.466344,-2.95351 -2.953512,-4.66344 -2.33172,-1.70993 -10.259568,-4.19709 l 0.310896,-2.17628 q 6.99516,0.93269 10.570464,0.93269 3.730751,0 5.440679,-1.08813 1.709928,-1.08814 1.709928,-4.508 V 177.37191 H 56.965307 v 32.17774 q 0,2.79806 -4.041648,4.50799 -4.041648,1.70993 -5.285232,1.70993 -1.088136,0 -1.088136,-2.02083 l 0.466344,-9.32688 q 0.466344,-6.21792 0.466344,-16.94383 v -41.50461 q 0,-8.0833 -0.621792,-16.47749 z"
       transform="scale(1.0177005,0.98260738)"
       id="path5" />
    <path
       style="font-size:155.448px;font-family:'Songti SC';-inkscape-font-specification:'Songti SC';stroke-width:0.809624"
       d="m 51.990971,98.715225 q 6.99516,2.798065 10.415016,5.440685 3.419856,2.64261 3.419856,6.06247 0,3.41985 -1.709928,5.59613 -1.709928,2.02082 -4.507992,2.02082 -2.642616,0 -3.264408,-5.75158 -0.466344,-5.90702 -5.907024,-12.124941 z"
       transform="scale(1.0177005,0.98260738)"
       id="path4" />
    <path
       style="font-size:155.448px;font-family:'Songti SC';-inkscape-font-specification:'Songti SC';stroke-width:0.809624"
       d="m 75.929963,119.07891 q 5.596127,-13.21308 8.083295,-21.918165 l 8.083296,4.507995 q 1.865376,1.08813 1.865376,2.02082 0,0.93269 -2.020824,1.70993 -1.865376,0.46634 -12.280392,13.67942 H 90.07573 l 7.7724,-8.70508 8.70509,10.10411 q 1.08813,1.08814 1.08813,2.02083 0,0.77724 -2.02082,0.77724 H 47.793875 q -6.062472,0 -10.570464,1.70993 l -5.751576,-6.68427 q 5.907024,0.77724 12.902184,0.77724 z"
       transform="scale(1.0177005,0.98260738)"
       id="path3" />
    <path
       style="font-size:155.448px;font-family:'Songti SC';-inkscape-font-specification:'Songti SC';stroke-width:0.809624"
       d="m 104.99874,94.051785 q 0.93269,1.243584 0.93269,2.020824 0,0.77724 -2.17628,0.77724 H 52.146419 q -6.062472,0 -10.570464,1.55448 l -5.751576,-6.528816 q 5.907024,0.932688 12.902184,0.932688 h 40.416479 l 7.306056,-8.54964 z"
       transform="scale(1.0177005,0.98260738)"
       id="path2" />
    <path
       style="font-size:155.448px;font-family:'Songti SC';-inkscape-font-specification:'Songti SC';stroke-width:0.809624"
       d="m 122.09802,90.165585 h 29.84601 l 8.0833,-9.482328 9.63778,11.192256 q 0.93268,1.399032 0.93268,2.020824 0,0.621792 -1.86537,0.621792 h -46.6344 v 13.679421 h 27.51429 l 3.57531,-6.83971 9.32688,5.59613 q 1.55448,1.08814 1.55448,2.17627 0,1.08814 -0.93269,1.55448 l -3.10896,1.70993 v 6.68426 q 0,4.04165 0.3109,7.92785 l 0.77724,6.37337 q 0,2.33172 -3.8862,4.19709 -3.8862,1.86538 -5.28524,1.86538 -1.39903,0 -1.39903,-4.50799 h -31.40049 v 13.83487 h 29.37967 l 6.99516,-8.23874 8.39419,9.32688 q 1.08814,1.08813 1.08814,2.02082 0,0.93269 -1.86538,0.93269 h -43.99178 v 11.6586 h 27.2034 l 6.68426,-7.92785 9.32688,9.17143 q 0.93269,0.93269 0.93269,1.86538 0,0.93269 -2.02083,0.93269 h -42.1264 v 13.52397 h 28.29153 l 7.15061,-8.23874 8.70509,9.63777 q 0.77724,0.93269 0.77724,1.86538 0,0.77724 -2.02083,0.77724 h -42.90364 v 10.72591 q 0,4.50799 2.95351,5.75158 3.10896,1.39903 19.1201,1.39903 16.01115,0 19.27555,-2.02082 3.41986,-1.86538 6.83972,-21.60728 h 2.17627 q -0.3109,11.6586 0.46634,15.23391 0.77724,3.73075 3.8862,5.59613 1.70993,1.24358 1.70993,2.33172 0,1.08813 -3.41986,4.19709 -3.41985,3.26441 -9.63777,4.04165 -6.21792,0.77724 -18.80921,0.77724 -12.59129,0 -21.14093,-0.62179 -8.54964,-0.62179 -10.88136,-2.95351 -2.17627,-2.17628 -2.17627,-8.54964 v -49.74336 q 0,-12.12495 -0.62179,-25.64892 l 8.86053,5.90702 H 150.545 V 112.5501 h -28.91333 l -1.86537,3.5753 q -0.77724,1.39903 -1.86538,1.39903 -0.93269,0 -2.02082,-0.62179 l -7.30606,-5.12978 q 2.48717,-2.02083 3.41986,-3.8862 0.93269,-2.02083 0.93269,-5.59613 V 82.548633 q 0,-6.217919 -0.6218,-11.347703 l 11.9695,5.596127 q 1.86538,0.77724 1.86538,1.709928 0,0.932688 -1.70993,2.020824 l -2.33172,1.399032 z"
       transform="scale(1.0177005,0.98260738)"
       id="path1" />
    <path
       style="font-size:155.448px;font-family:'Songti SC';-inkscape-font-specification:'Songti SC';stroke-width:0.809624"
       d="m 61.162403,70.890034 q 16.943832,4.974336 16.943832,11.503151 0,3.575304 -1.865376,6.21792 -1.865376,2.642616 -4.041648,2.642616 -2.176272,0 -2.953512,-1.088136 -0.77724,-1.243584 -1.399032,-4.507992 -1.243584,-7.616952 -7.616952,-12.902183 z"
       transform="scale(1.0177005,0.98260738)"
       id="text1" />
  </g>
</svg>
