<?xml version="1.0" encoding="UTF-8" standalone="no"?>
<!-- Created with Inkscape (http://www.inkscape.org/) -->

<svg
   width="1080"
   height="1920"
   viewBox="0 0 285.75 508"
   version="1.1"
   id="svg1"
   inkscape:version="1.3.2 (091e20e, 2023-11-25)"
   sodipodi:docname="gongxifacai.svg"
   xmlns:inkscape="http://www.inkscape.org/namespaces/inkscape"
   xmlns:sodipodi="http://sodipodi.sourceforge.net/DTD/sodipodi-0.dtd"
   xmlns="http://www.w3.org/2000/svg"
   xmlns:svg="http://www.w3.org/2000/svg">
  <sodipodi:namedview
     id="namedview1"
     pagecolor="#ffffff"
     bordercolor="#000000"
     borderopacity="0.25"
     inkscape:showpageshadow="2"
     inkscape:pageopacity="0.0"
     inkscape:pagecheckerboard="false"
     inkscape:deskcolor="#d1d1d1"
     inkscape:document-units="mm"
     inkscape:lockguides="false"
     showguides="true"
     showborder="true"
     showgrid="true"
     inkscape:zoom="0.33589188"
     inkscape:cx="567.14679"
     inkscape:cy="951.19895"
     inkscape:window-width="1440"
     inkscape:window-height="872"
     inkscape:window-x="0"
     inkscape:window-y="28"
     inkscape:window-maximized="0"
     inkscape:current-layer="layer1">
    <sodipodi:guide
       position="0,508"
       orientation="0,1080"
       id="guide1"
       inkscape:locked="false" />
    <sodipodi:guide
       position="285.75,508"
       orientation="1920,0"
       id="guide2"
       inkscape:locked="false" />
    <sodipodi:guide
       position="285.75,0"
       orientation="0,-1080"
       id="guide3"
       inkscape:locked="false" />
    <sodipodi:guide
       position="0,0"
       orientation="-1920,0"
       id="guide4"
       inkscape:locked="false" />
    <sodipodi:guide
       position="0,508"
       orientation="0,1080"
       id="guide5"
       inkscape:locked="false" />
    <sodipodi:guide
       position="285.75,508"
       orientation="1920,0"
       id="guide6"
       inkscape:locked="false" />
    <sodipodi:guide
       position="285.75,0"
       orientation="0,-1080"
       id="guide7"
       inkscape:locked="false" />
    <sodipodi:guide
       position="0,0"
       orientation="-1920,0"
       id="guide8"
       inkscape:locked="false" />
    <sodipodi:guide
       position="0,508"
       orientation="0,1080"
       id="guide9"
       inkscape:locked="false" />
    <sodipodi:guide
       position="285.75,508"
       orientation="1920,0"
       id="guide10"
       inkscape:locked="false" />
    <sodipodi:guide
       position="285.75,0"
       orientation="0,-1080"
       id="guide11"
       inkscape:locked="false" />
    <sodipodi:guide
       position="0,0"
       orientation="-1920,0"
       id="guide12"
       inkscape:locked="false" />
    <inkscape:grid
       id="grid12"
       units="mm"
       originx="0"
       originy="0"
       spacingx="1"
       spacingy="1"
       empcolor="#0099e5"
       empopacity="0.30196078"
       color="#0099e5"
       opacity="0.14901961"
       empspacing="5"
       dotted="false"
       gridanglex="30"
       gridanglez="30"
       visible="true" />
  </sodipodi:namedview>
  <defs
     id="defs1" />
  <g
     inkscape:label="图层 1"
     inkscape:groupmode="layer"
     id="layer1">
    <path
       style="font-size:100.762px;line-height:0.85;font-family:'Songti TC';-inkscape-font-specification:'Songti TC';stroke-width:0.524803"
       d="m 90.310227,174.12627 q 4.433528,3.22438 6.851816,6.95258 2.51905,3.62743 2.51905,6.24724 0,2.61981 -1.309906,3.92972 -1.209144,1.3099 -2.720574,1.3099 -1.410668,0 -2.01524,-0.60457 -0.50381,-0.50381 -0.604572,-1.10838 -0.100762,-0.60457 -0.100762,-2.61981 0,-5.94496 -3.425908,-13.09906 z"
       transform="scale(1.0179309,0.98238496)"
       id="path19" />
    <path
       style="font-size:100.762px;line-height:0.85;font-family:'Songti TC';-inkscape-font-specification:'Songti TC';stroke-width:0.524803"
       d="m 64.212869,173.01789 q 0.100762,1.81371 0.100762,3.52667 0,9.16934 -3.728194,14.00591 -3.627432,4.93734 -7.05334,4.93734 -1.309906,0 -2.51905,-1.10838 -1.209144,-1.00762 -1.209144,-2.61981 0,-2.41829 1.813716,-3.92972 5.844196,-4.83658 7.456388,-7.05334 1.712954,-2.31753 3.52667,-7.75867 z"
       transform="scale(1.0179309,0.98238496)"
       id="path18" />
    <path
       style="font-size:100.762px;line-height:0.85;font-family:'Songti TC';-inkscape-font-specification:'Songti TC';stroke-width:0.524803"
       d="m 100.78948,170.09579 q 17.73411,12.1922 17.73411,19.14478 0,2.61981 -1.61219,4.53429 -1.51143,1.91448 -3.02286,1.91448 -1.51143,0 -2.51905,-1.00762 -0.90686,-0.90686 -1.10839,-2.61982 -1.51143,-10.0762 -10.580007,-20.85773 z"
       transform="scale(1.0179309,0.98238496)"
       id="path17" />
    <path
       style="font-size:100.762px;line-height:0.85;font-family:'Songti TC';-inkscape-font-specification:'Songti TC';stroke-width:0.524803"
       d="m 86.380509,162.6394 -1.612192,1.30991 v 30.43012 q 0,3.62743 -0.906858,5.34039 -0.906858,1.71295 -4.232004,3.72819 -3.325146,2.116 -4.131242,2.116 -0.806096,0 -0.906858,-1.91447 -0.100762,-1.81372 -2.619812,-3.7282 -2.418288,-1.81372 -6.952578,-2.9221 l 0.201524,-1.81371 q 3.828956,0.20152 6.54953,0.20152 2.720574,0 4.232004,-0.50381 1.51143,-0.40305 1.51143,-2.31753 v -19.54782 q 0,-8.26249 -0.403048,-16.62573 l 8.867056,3.62743 q 1.51143,0.60457 1.51143,1.20914 0,0.50381 -1.108382,1.41067 z"
       transform="scale(1.0179309,0.98238496)"
       id="path16" />
    <path
       style="font-size:100.762px;line-height:0.85;font-family:'Songti TC';-inkscape-font-specification:'Songti TC';stroke-width:0.524803"
       d="M 91.720895,130.89937 H 73.281449 v 15.31582 h 18.439446 z"
       transform="scale(1.0179309,0.98238496)"
       id="path15" />
    <path
       style="font-size:100.762px;line-height:0.85;font-family:'Songti TC';-inkscape-font-specification:'Songti TC';stroke-width:0.524803"
       d="m 96.154423,149.03653 q 13.199827,20.65621 34.158317,21.05926 v 2.116 q -6.04572,0.40305 -6.85181,5.44115 -0.20153,1.20914 -0.90686,1.20914 -1.20915,0 -8.26249,-4.232 -7.05334,-4.33277 -12.29296,-10.17696 -5.138863,-5.94496 -8.867057,-15.41659 H 73.382211 q -5.642672,10.98306 -15.517348,20.45469 -9.874676,9.37086 -21.059258,14.10668 l -1.309906,-1.30991 q 10.781534,-7.05334 17.532588,-14.50973 6.851816,-7.55715 12.897536,-18.74173 H 46.881805 q -4.232004,0 -6.851816,1.10838 l -3.627432,-4.53429 q 3.728194,0.60457 8.363246,0.60457 h 21.865354 v -15.31582 h -12.59525 q -4.232004,0 -6.851816,1.10838 l -3.728194,-4.43353 q 3.828956,0.50381 8.363246,0.50381 h 14.812014 q 0,-8.66553 -0.403048,-17.2303 l 9.270104,3.42591 q 1.209144,0.50381 1.209144,1.00762 0,0.40305 -1.00762,1.41067 l -2.418288,1.91448 v 9.47162 h 18.439446 q 0,-9.06858 -0.403048,-17.33106 l 9.773913,3.72819 q 1.10838,0.50381 1.10838,1.10839 0,0.60457 -1.10838,1.3099 l -2.317525,1.61219 v 9.57239 h 10.076205 l 6.04572,-7.05334 7.45638,8.16173 q 0.60458,0.80609 0.60458,1.3099 0,0.40305 -1.41067,0.40305 H 98.774235 v 15.31582 h 16.726495 l 6.14648,-7.65791 7.55715,8.66553 q 0.60457,0.8061 0.60457,1.30991 0,0.50381 -1.41067,0.50381 z"
       transform="scale(1.0179309,0.98238496)"
       id="text12" />
    <path
       style="font-size:100.762px;line-height:0.85;font-family:'Songti TC';-inkscape-font-specification:'Songti TC';stroke-width:0.524803"
       d="m 180.68466,181.93482 v 11.48687 h 39.80099 v -11.48687 z"
       transform="scale(1.0179309,0.98238496)"
       id="path25" />
    <path
       style="font-size:100.762px;line-height:0.85;font-family:'Songti TC';-inkscape-font-specification:'Songti TC';stroke-width:0.524803"
       d="m 180.68466,196.14226 v 3.22439 q 0,1.20914 -0.50381,1.81371 -0.50381,0.60458 -2.82134,1.51143 -2.31752,1.00762 -3.32514,1.00762 -1.00762,0 -0.8061,-1.91447 0.50381,-3.12363 0.50381,-6.95258 V 181.7333 q 0,-2.72058 -0.40305,-6.44877 l 8.26249,3.92972 h 38.28956 l 2.82133,-3.82896 7.25487,4.73582 q 0.90686,0.70533 0.90686,1.20914 0,0.50381 -0.90686,0.90686 l -2.31753,1.20914 v 10.8823 q 0,1.81371 0.20153,3.52667 l 0.40304,3.02286 q 0,1.00762 -3.22438,1.81371 -3.12362,0.90686 -3.82896,0.90686 -0.70533,0 -0.70533,-1.91448 v -5.54191 z"
       transform="scale(1.0179309,0.98238496)"
       id="path24" />
    <path
       style="font-size:100.762px;line-height:0.85;font-family:'Songti TC';-inkscape-font-specification:'Songti TC';stroke-width:0.524803"
       d="m 184.11057,158.96109 q 9.2701,2.51905 9.2701,6.24724 0,2.41829 -0.80609,3.52667 -0.8061,1.00762 -2.11601,1.00762 -1.3099,0 -2.01524,-0.60457 -0.60457,-0.70534 -0.80609,-1.61219 -1.00762,-3.42591 -4.33277,-7.85944 z"
       transform="scale(1.0179309,0.98238496)"
       id="path23" />
    <path
       style="font-size:100.762px;line-height:0.85;font-family:'Songti TC';-inkscape-font-specification:'Songti TC';stroke-width:0.524803"
       d="m 211.51783,170.04491 h 21.46231 l 5.94496,-6.95258 6.44876,7.75867 q 0.8061,0.8061 0.8061,1.41067 0,0.60457 -1.41067,0.60457 h -80.6096 q -4.13124,0 -6.75105,1.10838 l -3.52667,-4.33276 q 4.13124,0.40305 8.26248,0.40305 h 44.83909 q 4.03048,-5.64268 6.04572,-11.48687 l 6.34801,3.12362 q 1.00762,0.50381 1.00762,1.10838 0,0.50381 -1.41067,1.00762 -1.41067,0.50381 -7.45639,6.24725 z"
       transform="scale(1.0179309,0.98238496)"
       id="path22" />
    <path
       style="font-size:100.762px;line-height:0.85;font-family:'Songti TC';-inkscape-font-specification:'Songti TC';stroke-width:0.524803"
       d="m 181.59152,155.53518 h 37.3827 v -9.16934 h -37.3827 z"
       transform="scale(1.0179309,0.98238496)"
       id="path21" />
    <path
       style="font-size:100.762px;line-height:0.85;font-family:'Songti TC';-inkscape-font-specification:'Songti TC';stroke-width:0.524803"
       d="m 218.97422,158.35651 h -37.3827 q 0.20152,2.11601 -2.41829,3.12363 -2.51905,0.90685 -3.82896,0.90685 -1.20914,0 -1.00762,-1.61219 0.40305,-3.12362 0.40305,-6.95258 v -7.35562 q 0,-2.72058 -0.30228,-6.44877 l 7.85943,3.72819 h 35.87127 l 2.82134,-4.03048 7.25486,4.33277 q 1.30991,0.60457 1.30991,1.10838 0,0.50381 -1.41067,1.30991 l -2.31752,1.20914 v 3.62743 q 0,2.82134 0.20152,4.53429 0.20152,1.71296 0.20152,1.91448 0,1.10838 -2.72057,2.01524 -2.72057,0.8061 -3.62743,0.8061 -0.90686,0 -0.90686,-2.21677 z"
       transform="scale(1.0179309,0.98238496)"
       id="path20" />
    <path
       style="font-size:100.762px;line-height:0.85;font-family:'Songti TC';-inkscape-font-specification:'Songti TC';stroke-width:0.524803"
       d="m 203.75916,123.69439 h 26.5004 l 5.74344,-6.95258 6.24724,7.45639 q 0.90686,1.10838 0.90686,1.71295 0,0.50381 -1.51143,0.50381 h -37.88651 v 8.26248 h 16.72649 l 4.93734,-5.84419 5.44115,6.44877 q 0.60457,0.90685 0.60457,1.51143 0,0.60457 -1.30991,0.60457 h -50.381 q -4.03048,0 -6.75105,1.10838 l -3.42591,-4.33277 q 3.62743,0.50381 8.16172,0.50381 h 18.54021 v -8.26248 h -28.91869 q -4.13125,0 -6.6503,1.10838 l -3.62743,-4.33276 q 3.82896,0.50381 8.36325,0.50381 h 30.83317 q 0,-7.25487 -0.30229,-12.89754 l 9.06858,3.32515 q 1.00762,0.40304 1.00762,0.90685 0,0.40305 -0.90685,1.10839 l -1.41067,1.10838 z"
       transform="scale(1.0179309,0.98238496)"
       id="text13" />
    <path
       style="font-size:166.469px;line-height:0.85;font-family:'Songti TC';-inkscape-font-specification:'Songti TC';stroke-width:0.867027"
       d="m 51.172255,256.09006 q 0,4.99407 -1.66469,7.65757 -1.66469,2.49704 -3.828787,2.49704 -1.66469,0 -2.996441,-1.33175 -1.331752,-1.33176 -1.66469,-4.16173 -0.499407,-2.33057 -0.998814,-3.82879 -0.332938,-1.66469 -1.165283,-3.16291 -0.665876,-1.66469 -2.164097,-3.66231 -1.331752,-1.99763 -3.495849,-5.16054 l 1.498221,-1.66469 q 5.160539,2.49703 8.32345,4.32819 3.16291,1.83116 4.994069,3.32938 1.831159,1.49822 2.497035,2.82997 0.665876,1.16529 0.665876,2.33057 z"
       transform="scale(1.0035754,0.99643734)"
       id="path28" />
    <path
       style="font-size:166.469px;line-height:0.85;font-family:'Songti TC';-inkscape-font-specification:'Songti TC';stroke-width:0.867027"
       d="m 96.78476,321.67884 q 5.49348,10.82049 13.15105,17.97865 3.99526,-4.16172 7.32464,-8.65638 3.49584,-4.49467 6.15935,-9.32227 z"
       transform="scale(1.0035754,0.99643734)"
       id="path27" />
    <path
       style="font-size:166.469px;line-height:0.85;font-family:'Songti TC';-inkscape-font-specification:'Songti TC';stroke-width:0.867027"
       d="m 43.181744,325.6741 q -0.499407,2.99644 -1.66469,3.99525 -1.165283,0.99882 -5.659946,1.66469 -2.829973,0.33294 -3.662318,-0.4994 -0.832345,-0.99882 0.332938,-4.99407 0.832345,-2.99644 1.66469,-6.49229 0.832345,-3.49585 1.498221,-6.49229 l 1.997628,-10.48755 q 0.665876,-3.66232 0.998814,-6.49229 0.332938,-2.82997 0.665876,-5.99289 l 9.988139,8.15699 h 19.643342 v -19.47688 h -18.31159 q -8.489918,6.82523 -17.312775,11.8193 -8.656388,4.8276 -17.645714,7.82404 l -0.499407,-3.32938 q 10.487547,-5.65994 19.310404,-12.48517 8.989326,-6.9917 16.147492,-14.31633 7.324636,-7.32464 12.818113,-14.81574 5.659946,-7.49111 9.655201,-14.31634 H 40.351771 q -3.995256,0 -6.492291,0.49941 -2.330566,0.33294 -4.827601,1.16528 l -5.826415,-6.9917 q 3.828787,0.49941 6.991698,0.66588 3.162911,0.16647 6.65876,0.16647 h 37.122585 l 6.65876,-7.49111 9.98814,10.48755 q 1.66469,1.66469 1.331752,2.49704 -0.166469,0.83234 -1.498221,1.16528 -3.32938,0.49941 -5.327008,1.66469 -1.997628,1.16528 -4.328194,4.16172 -5.826415,7.99052 -12.152236,14.81574 -6.159353,6.65876 -12.651644,12.31871 h 11.819299 l 4.328193,-5.99288 10.154609,6.65876 q 2.164097,1.33175 0,3.16291 l -2.996442,2.82997 v 5.99288 q 0,4.3282 0.166469,6.82523 0.166469,2.33057 0.665876,6.49229 0.166469,1.16529 0,1.99763 0,0.66588 -0.665876,1.49822 -0.665876,0.66588 -1.997628,1.49822 -1.331752,0.83235 -3.828787,2.1641 -4.661131,2.82997 -4.661131,-0.99881 v -3.49585 H 47.509937 l -3.495849,18.47806 H 63.65743 l 4.827601,-6.65876 9.988139,7.99051 q 1.66469,1.33175 1.498221,1.99763 -0.166469,0.4994 -1.831159,1.83115 l -3.995256,2.99645 q -0.665876,4.8276 -1.331752,8.32345 -0.499407,3.49584 -0.998813,6.15935 -0.499407,2.6635 -1.165283,4.8276 -0.499407,2.33057 -1.165283,4.49466 -0.665876,2.33057 -1.498221,4.16173 -0.832345,1.99763 -2.330566,3.66232 -1.498221,1.66469 -3.828787,3.16291 -2.164097,1.66469 -5.327008,3.32938 -2.497035,1.33175 -3.32938,0.99881 -0.665876,-0.16647 -0.998814,-1.99763 -0.332938,-2.49703 -1.165283,-4.32819 -0.832345,-1.66469 -2.829973,-3.16291 -1.831159,-1.33175 -5.327007,-2.66351 -3.32938,-1.33175 -8.822857,-3.16291 l 0.998814,-2.6635 q 7.990512,1.83116 12.818112,2.49703 4.827601,0.66588 7.491105,0 2.829973,-0.4994 3.995256,-2.6635 1.165283,-1.99763 1.997628,-5.49348 1.165283,-5.49347 1.498221,-9.48873 0.499407,-3.99526 0.499407,-9.6552 z"
       transform="scale(1.0035754,0.99643734)"
       id="path26" />
    <path
       style="font-size:166.469px;line-height:0.85;font-family:'Songti TC';-inkscape-font-specification:'Songti TC';stroke-width:0.867027"
       d="m 158.87769,360.29965 q -4.99407,0.83234 -8.15698,3.32938 -3.16291,2.49703 -4.16172,5.49348 -0.33294,1.33175 -1.16528,1.49822 -0.83235,0.33293 -3.16291,-0.49941 -10.48755,-3.66232 -18.64453,-8.32345 -8.15698,-4.66113 -14.4828,-10.82048 -10.321082,7.65757 -21.640974,12.98458 -11.319892,5.327 -22.306845,7.32463 l -0.665876,-2.49703 q 10.820484,-4.8276 20.808624,-10.65402 10.154609,-5.82641 18.644531,-12.98458 -3.995259,-4.99407 -6.991701,-10.82048 -2.996442,-5.82642 -5.327008,-12.48518 -1.831159,0.16647 -2.829973,0.49941 -0.998814,0.33294 -2.829973,1.16528 l -4.99407,-5.65994 q -0.832345,0.4994 -1.831159,0.99881 -0.998814,0.33294 -1.997628,0.83234 l -2.164097,-2.33056 q 6.325822,-4.8276 9.98814,-8.98933 3.828787,-4.16172 5.493477,-9.48873 1.66469,-5.49348 1.66469,-12.98458 0.166469,-7.49111 -0.832345,-18.97747 l 12.984577,6.65876 h 14.64928 l 2.16409,-2.16409 q -10.65401,-8.48992 -17.81218,-20.14275 -6.991697,-11.8193 -10.487546,-28.96561 h 3.828787 q 1.997628,6.49229 4.328189,11.98577 2.49704,5.49348 5.82642,10.32108 6.82523,-5.49348 12.98458,-10.98696 6.15935,-5.49347 10.65402,-11.15342 l 7.99051,9.48873 q 1.83116,2.1641 1.16528,3.16292 -0.66587,0.83234 -2.99644,0.16646 -0.49941,-0.16646 -1.49822,0 -0.83235,0.16647 -3.66232,1.33176 -2.6635,1.16528 -7.99051,3.82878 -5.32701,2.49704 -14.4828,6.9917 2.6635,3.32938 5.49347,6.32582 2.99644,2.99644 6.49229,5.49348 3.82879,-2.82997 6.9917,-5.16054 3.32938,-2.49703 6.32582,-4.66113 2.99645,-2.33057 5.82642,-4.66113 2.82997,-2.33057 5.82641,-4.99407 l 8.65639,8.82285 q 3.49585,3.82879 -1.83116,2.99645 -1.16528,-0.16647 -2.49703,0 -1.16529,0 -3.82879,1.16528 -2.6635,0.99881 -7.4911,3.32938 -4.82761,2.1641 -13.31752,6.15935 7.99051,4.8276 18.31158,7.82404 10.48755,2.99645 23.80507,4.82761 v 2.33056 q -5.16054,0.83235 -7.4911,2.82997 -2.33057,1.83116 -4.49467,6.82523 -0.66587,1.66469 -3.16291,0.83235 -5.32701,-1.83116 -10.32107,-4.49467 -4.99407,-2.6635 -9.48874,-4.99406 l -3.32938,2.99644 v 13.65045 q 0,4.82761 0.99882,5.99289 0.99881,0.99881 5.327,0.99881 5.32701,0 8.98933,-3.66232 1.33175,-1.33175 3.49585,0 1.33175,1.33176 2.49703,2.66351 1.33176,1.16528 2.33057,2.82997 1.33175,1.83116 1.16528,2.66351 -0.16647,0.66587 -1.83116,0.99881 -3.32938,0.99881 -7.82404,1.66469 -4.32819,0.49941 -8.65639,0.49941 -5.99288,0 -9.32226,-0.33294 -3.32938,-0.49941 -4.99407,-1.83116 -1.66469,-1.49822 -2.1641,-4.32819 -0.33294,-2.82998 -0.33294,-7.82405 V 277.8975 h -16.64689 q -0.33294,8.65638 -1.49823,14.81574 -0.998809,5.99288 -3.329375,10.48754 -2.164097,4.3282 -5.826415,7.65758 -3.495849,3.16291 -8.656388,5.99288 2.829973,0.33294 5.160539,0.49941 2.497035,0 5.327008,0 h 30.796761 l 5.65995,-6.49229 10.65401,9.82167 q 3.16291,3.16291 -0.16646,3.49585 -3.32938,0.33294 -4.99407,1.16528 -1.49823,0.66588 -3.32938,3.16291 -6.9917,8.98933 -15.64809,16.48043 8.32345,5.65995 18.64453,8.82286 10.48754,3.16291 23.63859,4.49466 z"
       transform="scale(1.0035754,0.99643734)"
       id="text14" />
    <path
       style="font-size:100.762px;line-height:0.85;font-family:'Songti TC';-inkscape-font-specification:'Songti TC';stroke-width:0.524803"
       d="m 192.33741,330.18182 q 17.93564,7.25487 17.93564,13.19983 0,2.51905 -1.51143,4.53429 -1.41067,2.116 -2.51905,2.116 -1.10838,0 -1.71296,-0.70534 -0.60457,-0.60457 -1.71295,-3.32514 -1.00762,-2.61981 -4.63505,-7.25487 -3.52667,-4.53429 -6.75106,-7.1541 z"
       transform="scale(1.0179309,0.98238496)"
       id="path31" />
    <path
       style="font-size:100.762px;line-height:0.85;font-family:'Songti TC';-inkscape-font-specification:'Songti TC';stroke-width:0.524803"
       d="m 187.80312,281.00997 6.95258,2.116 q 1.61219,0.60457 1.61219,1.30991 0,0.70533 -1.00762,1.41066 -1.00762,0.60458 -1.00762,4.33277 -0.10076,16.92802 -0.90686,25.49279 -0.70533,8.56477 -2.116,12.59525 -1.3099,4.03048 -4.43353,8.66553 -3.12362,4.53429 -8.06096,8.76629 -4.93733,4.33277 -12.1922,9.16934 l -1.00762,-1.00762 q 9.37087,-7.05334 14.40897,-15.01353 5.13886,-7.9602 6.54953,-17.02878 1.51143,-9.06858 1.51143,-20.55545 0,-11.58763 -0.30229,-20.25316 z"
       transform="scale(1.0179309,0.98238496)"
       id="path30" />
    <path
       style="font-size:100.762px;line-height:0.85;font-family:'Songti TC';-inkscape-font-specification:'Songti TC';stroke-width:0.524803"
       d="m 182.05969,269.72462 h 18.0364 l 4.03048,-5.44114 7.25486,6.04572 q 0.90686,0.60457 0.90686,1.00762 0,0.30228 -0.90686,0.90685 l -2.72057,2.11601 v 35.36746 q 0,3.32514 0.20152,6.348 l 0.30229,5.13887 q 0,1.91447 -2.9221,3.32514 -2.82134,1.30991 -3.7282,1.30991 -0.80609,0 -0.80609,-1.61219 V 272.4452 h -21.66383 v 50.78405 q 0,1.41066 -0.60457,2.21676 -0.50381,0.70533 -2.72058,1.71295 -2.21676,1.00762 -3.12362,1.00762 -0.90686,0 -1.20914,-0.70533 -0.20153,-0.70533 0,-2.72057 0.90685,-8.26249 0.90685,-15.81964 v -32.74765 q 0,-6.65029 -0.30228,-12.29296 z"
       transform="scale(1.0179309,0.98238496)"
       id="path29" />
    <path
       style="font-size:100.762px;line-height:0.85;font-family:'Songti TC';-inkscape-font-specification:'Songti TC';stroke-width:0.524803"
       d="m 238.78869,285.64502 v -8.96782 q 0,-7.75867 -0.40304,-16.62573 l 9.57239,4.23201 q 1.10838,0.50381 1.10838,1.00762 0,0.40304 -1.00762,1.3099 l -2.41829,2.31753 v 16.72649 h 3.62743 l 5.44115,-6.54953 6.04572,7.45639 q 0.70533,0.70533 0.70533,1.3099 0,0.60458 -1.71295,0.60458 h -14.10668 v 53.30309 q 0,4.53429 -0.90686,6.34801 -0.80609,1.81372 -4.93734,4.232 -4.03048,2.41829 -5.0381,2.41829 -0.90685,0 -1.3099,-2.51905 -0.30229,-2.51905 -2.82134,-4.13124 -2.51905,-1.51143 -10.17696,-3.22438 l 0.20152,-1.51143 q 9.37087,1.51143 12.39373,1.51143 3.12362,0 4.43353,-0.50381 1.3099,-0.40305 1.3099,-2.11601 V 289.6755 q -8.26248,29.12022 -29.22098,46.75357 l -0.90685,-0.90686 q 17.2303,-21.26078 24.18288,-47.05585 h -11.58763 q -4.23201,0 -6.85182,1.10838 l -3.62743,-4.43353 q 3.82895,0.50381 8.46401,0.50381 z"
       transform="scale(1.0179309,0.98238496)"
       id="text15" />
  </g>
</svg>
