<?xml version="1.0" encoding="UTF-8" standalone="no"?>
<!-- Created with Inkscape (http://www.inkscape.org/) -->

<svg
   width="720"
   height="1280"
   viewBox="0 0 190.5 338.66667"
   version="1.1"
   id="svg1"
   inkscape:version="1.3.2 (091e20e, 2023-11-25)"
   sodipodi:docname="happynewyear.svg"
   xmlns:inkscape="http://www.inkscape.org/namespaces/inkscape"
   xmlns:sodipodi="http://sodipodi.sourceforge.net/DTD/sodipodi-0.dtd"
   xmlns="http://www.w3.org/2000/svg"
   xmlns:svg="http://www.w3.org/2000/svg">
  <sodipodi:namedview
     id="namedview1"
     pagecolor="#ffffff"
     bordercolor="#000000"
     borderopacity="0.25"
     inkscape:showpageshadow="2"
     inkscape:pageopacity="0.0"
     inkscape:pagecheckerboard="0"
     inkscape:deskcolor="#d1d1d1"
     inkscape:document-units="mm"
     showgrid="true"
     inkscape:zoom="0.61023429"
     inkscape:cx="397.38836"
     inkscape:cy="561.25984"
     inkscape:window-width="1440"
     inkscape:window-height="900"
     inkscape:window-x="0"
     inkscape:window-y="0"
     inkscape:window-maximized="0"
     inkscape:current-layer="layer1">
    <inkscape:grid
       id="grid1"
       units="mm"
       originx="0"
       originy="0"
       spacingx="1"
       spacingy="1"
       empcolor="#0099e5"
       empopacity="0.30196078"
       color="#0099e5"
       opacity="0.14901961"
       empspacing="5"
       dotted="false"
       gridanglex="30"
       gridanglez="30"
       visible="true" />
  </sodipodi:namedview>
  <defs
     id="defs1" />
  <g
     inkscape:label="图层 1"
     inkscape:groupmode="layer"
     id="layer1">
    <g
       id="text1"
       style="font-size:71.1863px;font-family:'Songti SC';-inkscape-font-specification:'Songti SC';stroke-width:0.370762"
       transform="scale(0.98718486,1.0129815)"
       aria-label="&#10;新年&#10;快乐">
      <path
         d="m 44.902061,66.445533 q 3.915247,1.281353 5.76609,2.49152 1.922031,1.138981 1.922031,2.70508 0,1.494912 -1.35254,2.989825 -1.281354,1.423726 -2.70508,1.423726 -1.423726,0 -1.850843,-2.420335 -0.640677,-3.701687 -2.420335,-6.335581 z M 73.02065,94.065818 q -0.142372,16.230472 -3.701687,23.918602 -3.559315,7.68812 -14.308447,13.52539 l -0.711863,-0.92542 q 6.620326,-5.48134 9.467778,-9.61015 2.918638,-4.19999 3.772874,-10.17964 0.854236,-5.97965 0.854236,-16.942341 0,-10.96269 -0.213559,-22.352499 l 5.552531,4.413551 q 7.474562,-2.277962 15.02031,-6.620326 l 4.342365,4.983041 q 0.56949,0.640677 0.56949,1.138981 0,0.427118 -0.427118,0.427118 -0.427118,0 -1.210167,-0.284745 -0.783049,-0.355932 -1.850844,-0.355932 -1.067794,0 -2.064403,0.142373 l -14.949123,2.49152 q 0,3.844061 -0.142373,14.308447 h 13.66777 l 3.986433,-4.769482 4.62711,5.481345 q 0.498304,0.56949 0.498304,0.925422 0,0.284745 -0.996608,0.284745 H 85.54944 V 115.4929 l 0.142372,13.16946 q 0,1.28135 -2.064403,2.20678 -1.993216,0.9966 -2.705079,0.9966 -0.711863,0 -0.711863,-1.56609 l 0.284745,-6.33558 q 0.213559,-4.27118 0.213559,-10.10846 V 94.065818 Z M 64.051176,77.408223 q 0.355932,0.427118 0.355932,0.854236 0,0.427118 -0.925422,0.427118 H 39.278343 q -2.918638,0 -4.698296,0.640677 l -2.49152,-3.061011 q 2.562706,0.427117 5.623717,0.427117 h 18.793184 l 3.488129,-4.057619 z M 51.095269,94.777681 v 8.755919 h 5.552532 l 3.345756,-3.844064 3.84406,4.555924 q 0.427118,0.64068 0.427118,0.99661 0,0.28474 -0.996608,0.28474 H 51.095269 v 16.08811 q 0,3.84406 -0.640676,5.12541 -0.640677,1.35254 -2.70508,2.77627 -2.064403,1.49491 -2.562707,1.49491 -0.498304,0 -0.854235,-1.21017 -0.355932,-1.99321 -1.993217,-3.06101 -1.637285,-0.99661 -4.698296,-1.92203 l 0.213559,-0.99661 q 4.199992,0.42712 5.837277,0.42712 1.637285,0 2.064403,-0.4983 0.498304,-0.42712 0.498304,-1.70848 v -16.51522 h -6.833885 q -2.70508,0 -4.698296,0.64068 l -2.491521,-2.98983 q 1.993217,0.35594 5.766091,0.35594 h 8.257611 v -8.755919 h -8.827102 q -2.776266,0 -4.698296,0.783049 l -2.49152,-3.061011 q 2.562707,0.355932 5.694904,0.355932 h 14.593192 q 2.989825,-7.332189 3.630501,-13.738956 l 5.338973,2.633893 q 0.996608,0.427118 0.996608,0.783049 0,0.355932 -1.067794,0.925422 -0.996609,0.56949 -2.277962,2.277962 -1.281353,1.708471 -4.484737,7.11863 h 5.338973 l 3.488128,-4.199992 4.199992,4.911855 q 0.498304,0.640677 0.498304,0.925422 0,0.284745 -0.996608,0.284745 z M 39.847834,80.255675 q 6.691512,3.701688 6.691512,6.406768 0,1.637285 -1.281354,3.203383 -1.210167,1.494913 -2.277961,1.494913 -1.067795,0 -1.566099,-0.640677 -0.427118,-0.640677 -0.355931,-1.779658 0.07119,-1.210167 0.07119,-2.064402 0,-3.061011 -1.92203,-5.837277 z m 4.698295,30.182995 q 0.569491,0.42712 0.569491,0.92542 0,0.4983 -0.996608,0.71186 -0.498304,0.21356 -2.135589,2.42034 -4.128806,5.55253 -12.457603,12.31523 l -0.854236,-0.78305 q 4.199992,-4.84067 6.691512,-8.68473 2.562707,-3.84406 4.983042,-9.96608 z m 9.610151,-1.85085 q 5.125414,2.13559 6.905072,3.77288 1.850843,1.5661 1.850843,3.34575 0,1.70848 -0.783049,2.84746 -0.783049,1.13898 -1.566099,1.13898 -1.708471,0 -2.705079,-2.84746 -0.996608,-2.91863 -1.779658,-4.05761 -0.711863,-1.21017 -2.847452,-3.20339 z"
         id="path3" />
      <path
         d="m 119.007,79.686185 q -7.47456,11.959299 -17.08471,19.718606 l -0.85424,-0.854236 q 5.33898,-5.908463 10.3932,-14.593192 5.05423,-8.684729 7.47457,-16.586408 l 6.26439,2.847452 q 0.92542,0.427118 0.92542,0.925422 0,0.427118 -0.85423,0.56949 -0.85424,0.142373 -1.42373,0.78305 -0.56949,0.56949 -1.85084,2.633893 -1.28136,2.064402 -1.63729,2.562707 h 34.52536 l 4.69829,-5.623718 5.41016,6.406767 q 0.49831,0.640677 0.49831,0.925422 0,0.284745 -0.99661,0.284745 h -25.62707 v 13.169466 h 11.31862 l 4.19999,-5.054228 4.91186,5.837277 q 0.4983,0.498304 0.4983,0.854236 0,0.284745 -0.99661,0.284745 h -19.93216 v 14.308449 h 18.08132 l 4.19999,-5.05423 4.91186,5.83728 q 0.4983,0.4983 0.4983,0.85423 0,0.28475 -0.99661,0.28475 h -26.69486 v 6.83388 q 0,5.97965 0.0712,8.68473 0.14237,2.77627 0.14237,2.98983 0,1.92203 -1.99322,2.63389 -1.99321,0.78305 -2.91864,0.78305 -0.85423,0 -0.85423,-1.63729 l 0.21356,-6.54914 q 0.28474,-4.34236 0.28474,-8.47117 v -5.26778 h -26.33893 q -2.84745,0 -4.6983,0.78305 l -2.49152,-3.1322 q 2.6339,0.42712 5.69491,0.42712 h 9.82371 v -9.04066 q 0,-7.261005 -0.21356,-10.677948 l 5.76609,3.488129 h 12.4576 V 79.686185 Z m 1.70847,29.399945 h 13.09828 V 94.777681 h -13.09828 z"
         id="path4" />
      <path
         d="m 145.06119,193.37071 q 4.48474,2.70508 8.25761,5.48134 3.77287,2.77627 6.19321,5.12542 2.42033,2.34915 2.98982,3.55931 0.64068,1.13898 0.64068,2.77627 0,2.13559 -0.71186,3.48813 -0.64068,1.35254 -1.70848,1.35254 -1.06779,0 -1.92203,-1.13898 -0.85423,-1.13898 -2.42033,-4.34237 -1.49491,-3.20338 -5.12541,-7.83049 -3.6305,-4.6983 -7.04745,-7.33219 z"
         id="path11" />
      <path
         d="m 126.69512,195.79104 q 0.78305,0.56949 0.78305,0.99661 0,0.42712 -1.35254,0.78305 -1.35254,0.28475 -2.98982,2.13559 -7.75931,9.46778 -20.57284,17.86776 l -0.78305,-0.92542 q 13.31183,-10.96269 20.00335,-24.63046 z"
         id="path10" />
      <path
         d="m 119.71886,166.81822 -2.27796,19.78979 h 16.79997 v -5.26779 q 0,-4.91185 -0.28474,-11.17624 l 6.90507,3.13219 q 0.78305,0.35593 0.78305,0.71187 0,0.28474 -0.78305,0.92542 l -1.35254,1.13898 v 10.53557 h 16.0881 l 4.12881,-5.05423 4.98304,5.83728 q 0.42712,0.4983 0.42712,0.85424 0,0.28474 -0.99661,0.28474 h -24.63046 v 22.63725 q 0,2.98982 -0.64068,4.27117 -0.64068,1.28136 -3.20338,2.98983 -2.56271,1.77966 -3.06101,1.77966 -0.49831,0 -0.5695,-1.13899 -0.21355,-2.91863 -8.11523,-4.91185 l 0.14237,-1.35254 q 3.84406,0.64068 6.19321,0.64068 3.98643,0 3.98643,-2.49152 v -22.42369 h -16.30166 l -1.70847,2.42034 q -0.28475,0.42711 -0.64068,0.42711 -0.28475,0 -1.28135,-0.56949 l -3.70169,-2.27796 q 2.20677,-1.49491 2.5627,-5.33897 l 1.13899,-11.67456 q 0.4983,-4.69829 0.4983,-6.62032 0,-1.99322 -0.21356,-3.41694 l 5.26779,3.41694 q 9.3254,-0.78305 19.07793,-2.98983 9.82371,-2.20677 16.30166,-5.12541 l 4.1288,5.26779 q 0.28475,0.35593 0.28475,0.78305 0,0.64067 -0.78305,0.4983 -0.78305,-0.14237 -1.85084,-0.14237 -1.77966,0 -9.82371,1.06779 -8.04405,1.0678 -15.16269,1.85085 -7.04744,0.71186 -12.31523,0.71186 z"
         id="path9" />
      <path
         d="m 35.434283,172.6555 q 0.711863,4.69829 0.711863,7.90168 0,3.13219 -1.281354,5.55253 -1.210167,2.34914 -3.488128,2.34914 -1.067795,0 -1.922031,-0.64067 -0.783049,-0.64068 -0.783049,-1.77966 0,-1.13898 1.067795,-2.70508 3.915246,-5.1966 4.769482,-10.67794 z"
         id="path8" />
      <path
         d="m 44.973247,172.15719 v 31.39316 q 0,6.7627 0.07119,9.25422 l 0.142372,3.98643 q 0,1.5661 -2.206775,2.6339 -2.206776,1.06779 -2.70508,1.06779 -0.854235,0 -0.854235,-1.06779 0,-0.99661 0.07119,-1.77966 0.498304,-5.1966 0.498304,-15.66099 v -35.37959 q 0,-5.6949 -0.284745,-11.53218 l 6.833885,2.98982 q 0.711863,0.28475 0.711863,0.78305 0,0.42712 -0.711863,0.85424 l -1.566099,0.92542 v 9.8949 q 9.752524,3.06101 9.752524,6.97625 0,2.06441 -0.78305,3.34576 -0.783049,1.21017 -1.779657,1.21017 -1.281354,0 -2.064403,-2.42034 -1.566099,-4.27117 -5.125414,-7.47456 z"
         id="path7" />
      <path
         d="M 80.851144,191.73342 V 173.1538 H 70.030826 q -0.569491,10.03727 -1.779658,18.57962 z"
         id="path6" />
      <path
         d="m 72.807091,193.72664 q 6.193209,17.44065 22.708431,20.43047 l -0.07119,1.21017 q -5.125414,-0.28475 -6.193209,3.27457 -0.213559,0.64067 -0.640676,0.64067 -0.996609,0 -5.196601,-3.06101 -4.199991,-2.98982 -7.403375,-8.25761 -3.132197,-5.26778 -5.125414,-14.23726 h -2.989824 q -1.993217,10.74913 -7.189817,17.01353 -5.1966,6.26439 -15.162682,10.67794 L 45.11562,220.4215 q 7.972866,-4.98304 12.244044,-11.24743 4.342364,-6.2644 5.837277,-15.44743 H 54.15628 q -2.776266,0 -4.840668,0.71186 l -2.562707,-3.06101 q 2.705079,0.35593 5.979649,0.35593 h 10.749132 q 1.210167,-7.54574 1.35254,-18.57962 h -4.983042 q -2.989824,0 -4.840668,0.71186 l -2.562707,-3.06101 q 2.705079,0.42712 5.979649,0.42712 h 6.406768 q 0.07119,-4.19999 0.07119,-8.18643 0,-3.98643 -0.213559,-8.47117 l 7.047444,2.56271 q 1.138981,0.35593 1.138981,0.85424 0,0.4983 -0.925422,1.06779 -0.925422,0.56949 -1.281354,1.5661 -0.284745,0.92542 -0.355931,3.55932 l -0.213559,7.04744 h 10.535573 l 2.989824,-3.77287 4.698296,3.84406 q 0.427118,0.35593 0.427118,0.71186 0,0.35593 -0.498304,0.78305 l -2.349148,1.99321 v 16.94234 h 1.067795 l 3.915246,-4.6271 4.484737,5.26778 q 0.498304,0.49831 0.498304,0.92542 0,0.42712 -1.067794,0.42712 z"
         id="path5" />
    </g>
  </g>
</svg>
