<?xml version="1.0" encoding="UTF-8" standalone="no"?>
<!-- Created with Inkscape (http://www.inkscape.org/) -->

<svg
   width="720"
   height="1280"
   viewBox="0 0 190.5 338.66667"
   version="1.1"
   id="svg1"
   inkscape:version="1.3.2 (091e20e, 2023-11-25)"
   sodipodi:docname="happynewyear.svg"
   xmlns:inkscape="http://www.inkscape.org/namespaces/inkscape"
   xmlns:sodipodi="http://sodipodi.sourceforge.net/DTD/sodipodi-0.dtd"
   xmlns="http://www.w3.org/2000/svg"
   xmlns:svg="http://www.w3.org/2000/svg">
  <sodipodi:namedview
     id="namedview1"
     pagecolor="#ffffff"
     bordercolor="#000000"
     borderopacity="0.25"
     inkscape:showpageshadow="2"
     inkscape:pageopacity="0.0"
     inkscape:pagecheckerboard="0"
     inkscape:deskcolor="#d1d1d1"
     inkscape:document-units="mm"
     showgrid="true"
     inkscape:zoom="0.61023429"
     inkscape:cx="397.38835"
     inkscape:cy="561.25984"
     inkscape:window-width="1440"
     inkscape:window-height="900"
     inkscape:window-x="0"
     inkscape:window-y="0"
     inkscape:window-maximized="0"
     inkscape:current-layer="layer1">
    <inkscape:grid
       id="grid1"
       units="mm"
       originx="0"
       originy="0"
       spacingx="1"
       spacingy="1"
       empcolor="#0099e5"
       empopacity="0.30196078"
       color="#0099e5"
       opacity="0.14901961"
       empspacing="5"
       dotted="false"
       gridanglex="30"
       gridanglez="30"
       visible="true" />
  </sodipodi:namedview>
  <defs
     id="defs1" />
  <g
     inkscape:label="图层 1"
     inkscape:groupmode="layer"
     id="layer1">
    <path
       style="font-size:50.8px;font-family:'Songti SC';-inkscape-font-specification:'Songti SC';fill:#ff0000;stroke-width:0.379171"
       d="m 45.361418,102.51451 q 5.28127,2.16765 7.115043,3.82952 1.907125,1.58961 1.907125,3.39599 0,1.73413 -0.80686,2.89021 -0.806861,1.15608 -1.613721,1.15608 -1.760424,0 -2.787337,-2.8902 -1.026914,-2.96247 -1.833775,-4.11855 -0.733509,-1.22833 -2.934038,-3.25148 z"
       id="path9" />
    <path
       style="font-size:50.8px;font-family:'Songti SC';-inkscape-font-specification:'Songti SC';fill:#ff0000;stroke-width:0.379171"
       d="m 35.459039,104.39314 q 0.586808,0.43353 0.586808,0.93932 0,0.50579 -1.026913,0.72255 -0.513457,0.21677 -2.200529,2.45667 -4.254356,5.6359 -12.836419,12.50014 l -0.880211,-0.7948 q 4.327707,-4.91335 6.89499,-8.81513 2.640635,-3.90178 5.134568,-10.11572 z"
       id="path8" />
    <path
       style="font-size:50.8px;font-family:'Songti SC';-inkscape-font-specification:'Songti SC';fill:#ff0000;stroke-width:0.379171"
       d="m 30.617876,73.75697 q 6.894989,3.757267 6.894989,6.502961 0,1.661868 -1.320318,3.25148 -1.246965,1.517358 -2.347229,1.517358 -1.100264,0 -1.613721,-0.650295 -0.440105,-0.650297 -0.366755,-1.806379 0.07335,-1.228338 0.07335,-2.095399 0,-3.106969 -1.980477,-5.92492 z"
       id="path7" />
    <path
       style="font-size:50.8px;font-family:'Songti SC';-inkscape-font-specification:'Songti SC';fill:#ff0000;stroke-width:0.379171"
       d="m 42.207327,88.497016 v 8.88738 h 5.721374 l 3.447496,-3.901776 3.960952,4.624327 q 0.440105,0.650297 0.440105,1.011572 0,0.289021 -1.026913,0.289021 H 42.207327 v 16.32966 q 0,3.90177 -0.660159,5.20237 -0.660158,1.37284 -2.787337,2.81795 -2.127178,1.51736 -2.640634,1.51736 -0.513456,0 -0.880211,-1.22834 -0.366755,-2.02315 -2.053826,-3.10697 -1.687072,-1.01157 -4.841164,-1.95089 l 0.220053,-1.01157 q 4.327707,0.43353 6.014779,0.43353 1.68707,0 2.127177,-0.50578 0.513456,-0.43354 0.513456,-1.73413 V 99.40754 H 30.17777 q -2.787337,0 -4.841163,0.6503 l -2.567284,-3.034718 q 2.053827,0.361274 5.941428,0.361274 h 8.50871 v -8.88738 h -9.095518 q -2.860687,0 -4.841164,0.794806 l -2.567283,-3.10697 q 2.640635,0.361275 5.868077,0.361275 h 15.036946 q 3.08074,-7.442277 3.740899,-13.945238 l 5.501322,2.673439 q 1.026913,0.43353 1.026913,0.794806 0,0.361275 -1.100264,0.939317 -1.026913,0.57804 -2.347231,2.312164 -1.320317,1.734122 -4.62111,7.225512 h 5.501321 l 3.594198,-4.263052 4.327707,4.985603 q 0.513457,0.650298 0.513457,0.939318 0,0.28902 -1.026914,0.28902 z"
       id="path6" />
    <path
       style="font-size:50.8px;font-family:'Songti SC';-inkscape-font-specification:'Songti SC';fill:#ff0000;stroke-width:0.379171"
       d="m 55.557202,70.866766 q 0.366755,0.433529 0.366755,0.86706 0,0.43353 -0.953563,0.43353 H 30.031068 q -3.007389,0 -4.841164,0.650298 l -2.567282,-3.10697 q 2.640634,0.433531 5.794725,0.433531 H 47.782 l 3.594197,-4.118542 z"
       id="path5" />
    <path
       style="font-size:50.8px;font-family:'Songti SC';-inkscape-font-specification:'Songti SC';fill:#ff0000;stroke-width:0.379171"
       d="m 64.799423,87.774464 q -0.146702,16.474166 -3.814251,24.277726 -3.667548,7.80355 -14.743543,13.72848 l -0.733509,-0.93932 q 6.821639,-5.56365 9.755678,-9.75444 3.007389,-4.26306 3.887601,-10.33249 0.880212,-6.069433 0.880212,-17.196721 0,-11.12729 -0.220053,-22.688108 l 5.721374,4.479818 q 7.701851,-2.312164 15.477053,-6.719728 l 4.474409,5.057861 q 0.586808,0.650294 0.586808,1.156081 0,0.43353 -0.440106,0.43353 -0.440106,0 -1.246967,-0.28902 -0.80686,-0.361275 -1.907124,-0.361275 -1.100265,0 -2.127178,0.14451 l -15.403702,2.528927 q 0,3.901778 -0.146702,14.52328 h 14.083385 l 4.107653,-4.841093 4.767813,5.563645 q 0.513456,0.578041 0.513456,0.939316 0,0.289021 -1.026913,0.289021 h -9.535625 v 21.748786 l 0.146702,13.3672 q 0,1.3006 -2.127178,2.23991 -2.053826,1.01158 -2.787337,1.01158 -0.733509,0 -0.733509,-1.58962 l 0.293404,-6.43071 q 0.220053,-4.3353 0.220053,-10.26022 V 87.774464 Z"
       id="path4" />
    <path
       style="font-size:50.8px;font-family:'Songti SC';-inkscape-font-specification:'Songti SC';fill:#ff0000;stroke-width:0.379171"
       d="m 35.825794,59.739477 q 4.034301,1.300592 5.941426,2.528929 1.980476,1.156082 1.980476,2.745695 0,1.517357 -1.393668,3.034716 -1.320317,1.445102 -2.787337,1.445102 -1.467018,0 -1.907124,-2.456674 -0.660158,-3.757266 -2.493932,-6.430706 z"
       id="text1" />
    <path
       style="font-size:50.8px;font-family:'Songti SC';-inkscape-font-specification:'Songti SC';fill:#ff0000;stroke-width:0.379171"
       d="m 118.84967,103.02029 h 13.49657 V 88.497005 h -13.49657 z"
       id="path10" />
    <path
       style="font-size:50.8px;font-family:'Songti SC';-inkscape-font-specification:'Songti SC';fill:#ff0000;stroke-width:0.379171"
       d="m 117.08924,73.17892 q -7.70185,12.138861 -17.604224,20.014673 l -0.880209,-0.867062 q 5.501313,-5.997179 10.709233,-14.812305 5.20792,-8.815125 7.70185,-16.835442 l 6.45489,2.890203 q 0.95355,0.433531 0.95355,0.939317 0,0.43353 -0.8802,0.578042 -0.88021,0.14451 -1.46702,0.794806 -0.58682,0.57804 -1.90712,2.673439 -1.32032,2.095398 -1.68708,2.601184 h 35.57523 l 4.84116,-5.708154 5.57468,6.502961 q 0.51346,0.650297 0.51346,0.939316 0,0.289022 -1.02692,0.289022 h -26.40636 v 13.367197 h 11.66282 l 4.3277,-5.130113 5.06122,5.924919 q 0.51346,0.505787 0.51346,0.867062 0,0.28902 -1.02692,0.28902 h -20.53828 v 14.523285 h 18.63116 l 4.3277,-5.130112 5.06122,5.924922 q 0.51346,0.50578 0.51346,0.86706 0,0.28902 -1.02692,0.28902 h -27.50662 v 6.93649 q 0,6.06943 0.0734,8.81512 0.1467,2.81795 0.1467,3.03472 0,1.9509 -2.05382,2.67344 -2.05383,0.79481 -3.0074,0.79481 -0.88021,0 -0.88021,-1.66187 l 0.22006,-6.64747 q 0.2934,-4.40756 0.2934,-8.59836 v -5.34688 H 105.2064 q -2.93404,0 -4.84116,0.7948 l -2.567284,-3.17922 q 2.713984,0.43353 5.868064,0.43353 h 10.12244 v -9.176401 q 0,-7.370027 -0.22005,-10.838274 l 5.94142,3.540502 h 12.83642 V 73.17892 Z"
       id="text2" />
    <path
       style="font-size:50.8px;font-family:'Songti SC';-inkscape-font-specification:'Songti SC';fill:#ff0000;stroke-width:0.379171"
       d="m 23.565923,163.56258 q 0.73351,4.76885 0.73351,8.02032 0,3.17923 -1.320317,5.6359 -1.246967,2.38441 -3.594197,2.38441 -1.100265,0 -1.980477,-0.65028 -0.80686,-0.6503 -0.80686,-1.80638 0,-1.15609 1.100264,-2.74569 4.034303,-5.27464 4.914514,-10.83828 z"
       id="path13" />
    <path
       style="font-size:50.8px;font-family:'Songti SC';-inkscape-font-specification:'Songti SC';fill:#ff0000;stroke-width:0.379171"
       d="m 33.394952,163.0568 v 31.8645 q 0,6.86424 0.07335,9.39318 l 0.146702,4.04628 q 0,1.58962 -2.273879,2.67344 -2.27388,1.08383 -2.787337,1.08383 -0.880211,0 -0.880211,-1.08383 0,-1.01158 0.07335,-1.80637 0.513457,-5.27464 0.513457,-15.89614 v -35.9108 q 0,-5.78041 -0.293404,-11.70533 l 7.041691,3.03473 q 0.733511,0.28901 0.733511,0.79479 0,0.43353 -0.733511,0.86707 l -1.61372,0.93932 v 10.04346 q 10.049082,3.10696 10.049082,7.081 0,2.09539 -0.806861,3.39599 -0.80686,1.22835 -1.833774,1.22835 -1.320318,0 -2.127178,-2.45669 -1.613721,-4.33531 -5.281269,-7.58678 z"
       id="path12" />
    <path
       style="font-size:50.8px;font-family:'Songti SC';-inkscape-font-specification:'Songti SC';fill:#ff0000;stroke-width:0.379171"
       d="M 70.363835,182.92695 V 164.06837 H 59.214489 q -0.586808,10.18796 -1.833774,18.85858 z"
       id="path11" />
    <path
       style="font-size:50.8px;font-family:'Songti SC';-inkscape-font-specification:'Songti SC';fill:#ff0000;stroke-width:0.379171"
       d="m 62.075177,184.95009 q 6.381533,17.70252 23.398957,20.73723 l -0.07335,1.22834 q -5.281269,-0.28903 -6.381533,3.32372 -0.220053,0.65031 -0.66016,0.65031 -1.026913,0 -5.354619,-3.10697 -4.327707,-3.03471 -7.6285,-8.38159 -3.227442,-5.34688 -5.28127,-14.45104 h -3.08074 q -2.053825,10.91053 -7.408446,17.26899 -5.35462,6.35845 -15.623755,10.83827 l -0.440105,-1.01158 q 8.215307,-5.05785 12.616365,-11.41631 4.474408,-6.35844 6.014779,-15.67937 h -9.315573 q -2.860686,0 -4.987865,0.72255 l -2.640634,-3.10696 q 2.787337,0.36127 6.16148,0.36127 h 11.075996 q 1.246966,-7.65903 1.393668,-18.85858 h -5.134571 q -3.080741,0 -4.987865,0.72255 l -2.640634,-3.10697 q 2.787336,0.43352 6.161479,0.43352 h 6.601588 q 0.07335,-4.26305 0.07335,-8.30934 0,-4.04628 -0.220053,-8.59835 l 7.261744,2.60118 q 1.173616,0.36128 1.173616,0.86706 0,0.50579 -0.953563,1.08383 -0.953563,0.57804 -1.320317,1.58962 -0.293404,0.93931 -0.366755,3.61276 l -0.220053,7.15324 H 70.14378 l 3.080741,-3.82951 4.841163,3.90178 q 0.440106,0.36127 0.440106,0.72255 0,0.36127 -0.513456,0.79481 l -2.420583,2.02314 v 17.19671 h 1.100264 l 4.034304,-4.69657 4.62111,5.34688 q 0.513457,0.50578 0.513457,0.93931 0,0.43352 -1.100265,0.43352 z"
       id="text3" />
    <path
       style="font-size:50.8px;font-family:'Songti SC';-inkscape-font-specification:'Songti SC';fill:#ff0000;stroke-width:0.379171"
       d="m 140.1794,184.58882 q 4.62111,2.74569 8.50872,5.56364 3.88759,2.81796 6.38153,5.20238 2.49393,2.38442 3.08074,3.61276 0.66016,1.15608 0.66016,2.81794 0,2.16765 -0.73351,3.54051 -0.66017,1.37284 -1.76043,1.37284 -1.10026,0 -1.98047,-1.15608 -0.88021,-1.15608 -2.49393,-4.40755 -1.54037,-3.25149 -5.28127,-7.94806 -3.7409,-4.76885 -7.26175,-7.44229 z"
       id="path15" />
    <path
       style="font-size:50.8px;font-family:'Songti SC';-inkscape-font-specification:'Songti SC';fill:#ff0000;stroke-width:0.379171"
       d="m 121.25485,187.0455 q 0.80686,0.57804 0.80686,1.01155 0,0.43355 -1.39367,0.79482 -1.39366,0.28903 -3.08073,2.16765 -7.99526,9.60994 -21.198431,18.13604 l -0.80686,-0.93931 q 13.716631,-11.1273 20.611621,-25.00027 z"
       id="path14" />
    <path
       style="font-size:50.8px;font-family:'Songti SC';-inkscape-font-specification:'Songti SC';fill:#ff0000;stroke-width:0.379171"
       d="m 114.06646,157.63767 -2.34723,20.08692 h 17.31082 v -5.34688 q 0,-4.98561 -0.2934,-11.34406 l 7.11505,3.17923 q 0.80686,0.36128 0.80686,0.72255 0,0.28902 -0.80686,0.93932 l -1.39367,1.15608 v 10.69376 h 16.57732 l 4.25435,-5.13012 5.13457,5.92492 q 0.4401,0.50578 0.4401,0.86707 0,0.28901 -1.02691,0.28901 h -25.37943 v 22.97714 q 0,3.03471 -0.66016,4.33531 -0.66016,1.30058 -3.30079,3.0347 -2.64064,1.80638 -3.1541,1.80638 -0.51346,0 -0.5868,-1.15607 -0.22006,-2.96246 -8.36201,-4.98561 l 0.14669,-1.37284 q 3.96096,0.65029 6.38154,0.65029 4.10765,0 4.10765,-2.52894 v -22.76036 h -16.79736 l -1.76043,2.45669 q -0.2934,0.43352 -0.66016,0.43352 -0.2934,0 -1.32031,-0.57805 l -3.81425,-2.31216 q 2.27388,-1.51736 2.64063,-5.41914 l 1.17362,-11.84982 q 0.51345,-4.76884 0.51345,-6.71973 0,-2.02315 -0.22005,-3.46825 l 5.42797,3.46825 q 9.60898,-0.79482 19.65807,-3.03472 10.12242,-2.23991 16.79736,-5.20237 l 4.25436,5.34688 q 0.2934,0.36127 0.2934,0.79481 0,0.65028 -0.80686,0.50579 -0.80686,-0.14451 -1.90713,-0.14451 -1.83377,0 -10.12243,1.08382 -8.28866,1.08383 -15.62375,1.87862 -7.26175,0.72257 -12.68972,0.72257 z"
       id="text4" />
  </g>
</svg>
