<?xml version="1.0" encoding="UTF-8" standalone="no"?>
<!-- Created with Inkscape (http://www.inkscape.org/) -->

<svg
   version="1.1"
   id="svg1897"
   width="584"
   height="811"
   viewBox="0 0 584 811"
   sodipodi:docname="yinfu.svg"
   inkscape:version="1.2 (dc2aedaf03, 2022-05-15)"
   xmlns:inkscape="http://www.inkscape.org/namespaces/inkscape"
   xmlns:sodipodi="http://sodipodi.sourceforge.net/DTD/sodipodi-0.dtd"
   xmlns="http://www.w3.org/2000/svg"
   xmlns:svg="http://www.w3.org/2000/svg">
  <defs
     id="defs1901" />
  <sodipodi:namedview
     id="namedview1899"
     pagecolor="#ffffff"
     bordercolor="#000000"
     borderopacity="0.25"
     inkscape:showpageshadow="2"
     inkscape:pageopacity="0.0"
     inkscape:pagecheckerboard="0"
     inkscape:deskcolor="#d1d1d1"
     showgrid="false"
     inkscape:zoom="0.75244532"
     inkscape:cx="-128.24852"
     inkscape:cy="528.27759"
     inkscape:window-width="1920"
     inkscape:window-height="1121"
     inkscape:window-x="-9"
     inkscape:window-y="-9"
     inkscape:window-maximized="1"
     inkscape:current-layer="g1903" />
  <g
     inkscape:groupmode="layer"
     inkscape:label="Image"
     id="g1903">
    <path
       style="fill:#000000;fill-opacity:0;stroke:#000000;stroke-width:5;stroke-miterlimit:0"
       d="m 268.92833,258.22828 c 0,0 -21.61414,-93.03476 -7.51796,-143.781 14.09617,-50.74623 33.59588,-73.065176 38.52954,-76.58922 4.93367,-3.524044 23.72857,-33.8308226 49.33662,42.993337 25.60805,76.824163 17.38528,118.172943 4.69873,148.244783 -12.68656,30.07184 -35.24044,67.19177 -84.10719,110.88992 -48.86674,43.69815 -87.39629,101.49247 -85.98667,133.91367 1.40962,32.42121 7.04809,79.87834 50.27636,101.49247 43.22827,21.61414 76.11935,22.08401 99.1431,13.62631 23.02376,-8.45771 51.68598,-32.42121 54.03535,-54.03535 2.34936,-21.61413 3.75898,-55.91483 -24.43338,-77.99884 -28.19235,-22.08401 -70.011,-14.09617 -82.69756,0.93975 -7.51796,9.39745 -26.78274,32.4212 -19.73465,52.15585 7.04809,19.73465 16.44554,30.54171 26.31286,35.71031 9.86733,5.1686 13.15643,8.45771 10.3372,12.68656 -2.81924,4.22885 -32.89108,-6.10834 -45.10776,-25.84299 -12.21669,-19.73465 -23.9635,-58.73407 -7.51797,-88.33604 16.44554,-29.60197 35.24045,-47.92699 70.48089,-52.15585 35.24044,-4.22885 79.87833,12.68656 93.03476,50.27636 13.15643,37.58981 8.4577,77.99885 0,99.61298 -8.45771,21.61414 -33.83082,47.927 -79.87833,59.20394 -46.04751,11.27694 -90.57348,5.82991 -124.79523,-29.05634 -34.22176,-34.88626 -64.78877,-102.00077 -46.84726,-153.83178 17.9415,-51.83101 44.52151,-90.03977 69.10801,-113.96177 24.5865,-23.922 71.43376,-68.44351 77.74651,-77.74651 6.31275,-9.30301 32.56051,-42.52801 36.21526,-60.80176 3.65475,-18.27376 13.29,-36.87976 0.33225,-60.13726 -12.95775,-23.257508 -35.64636,-9.967505 -50.54981,24.5865 -14.90345,34.55401 -17.8937,53.16001 -13.2422,91.03652 4.6515,37.8765 89.62227,456.9715 89.62227,456.9715 0,0 11.714,49.37758 -11.21126,73.63184 -22.92525,24.25425 -40.86675,32.89275 -88.04626,29.238 -47.17951,-3.65475 -56.81476,-61.13401 -49.83751,-80.73676 6.97725,-19.60275 24.91875,-44.52151 55.81801,-31.56376 30.89925,12.95776 30.4714,52.16326 16.89695,66.45002 -13.57445,14.28675 -21.8807,12.95775 -25.8677,13.62225 -3.987,0.6645 -9.96751,-0.33225 -9.96751,-0.33225 0,0 6.88165,21.264 35.83521,18.27375 28.95356,-2.99025 51.87881,-8.97075 57.85931,-32.89276 5.9805,-23.922 9.303,-30.23475 -0.6645,-81.40126 -9.9675,-51.16651 -77.60848,-394.35512 -77.60848,-394.35512 z"
       id="path1907" />
  </g>
</svg>