<?xml version="1.0" encoding="UTF-8" standalone="no"?>
<!-- Created with Inkscape (http://www.inkscape.org/) -->

<svg
   width="210mm"
   height="297mm"
   viewBox="0 0 210 297"
   version="1.1"
   id="svg1"
   inkscape:version="1.3.2 (091e20e, 2023-11-25)"
   sodipodi:docname="new.svg"
   xmlns:inkscape="http://www.inkscape.org/namespaces/inkscape"
   xmlns:sodipodi="http://sodipodi.sourceforge.net/DTD/sodipodi-0.dtd"
   xmlns="http://www.w3.org/2000/svg"
   xmlns:svg="http://www.w3.org/2000/svg">
  <sodipodi:namedview
     id="namedview1"
     pagecolor="#ffffff"
     bordercolor="#000000"
     borderopacity="0.25"
     inkscape:showpageshadow="2"
     inkscape:pageopacity="0.0"
     inkscape:pagecheckerboard="0"
     inkscape:deskcolor="#d1d1d1"
     inkscape:document-units="mm"
     inkscape:zoom="0.61023429"
     inkscape:cx="397.38836"
     inkscape:cy="561.25984"
     inkscape:window-width="1440"
     inkscape:window-height="900"
     inkscape:window-x="0"
     inkscape:window-y="0"
     inkscape:window-maximized="0"
     inkscape:current-layer="layer1" />
  <defs
     id="defs1" />
  <g
     inkscape:label="图层 1"
     inkscape:groupmode="layer"
     id="layer1">
    <text
       xml:space="preserve"
       style="font-size:50.8px;fill:#000000;stroke-width:0.264583"
       x="80.211678"
       y="140.47882"
       id="text1"><tspan
         sodipodi:role="line"
         id="tspan1"
         style="stroke-width:0.264583;font-size:50.8px"
         x="80.211678"
         y="140.47882" /></text>
    <path
       style="font-size:190.032px;font-family:'Songti SC';-inkscape-font-specification:'Songti SC';fill:#d35f5f;stroke-width:0.989743"
       d="m 79.052804,181.36611 q 13.682304,5.70096 18.433104,10.07169 4.940832,4.18071 4.940832,8.93151 0,4.56077 -2.09035,7.60128 -2.090354,3.04051 -4.180706,3.04051 -4.560768,0 -7.221216,-7.60128 -2.660448,-7.79131 -4.7508,-10.83182 -1.90032,-3.23055 -7.60128,-8.55144 z"
       transform="scale(1.0580959,0.94509391)"
       id="path11" />
    <path
       style="font-size:190.032px;font-family:'Songti SC';-inkscape-font-specification:'Songti SC';fill:#d35f5f;stroke-width:0.989743"
       d="m 53.398484,186.30694 q 1.520256,1.14019 1.520256,2.47042 0,1.33022 -2.660448,1.90032 -1.330224,0.57009 -5.70096,6.46108 -11.021856,14.8225 -33.255599,32.87554 l -2.280384,-2.09035 q 11.211888,-12.92218 17.863008,-23.18391 6.841151,-10.26172 13.302239,-26.60448 z"
       transform="scale(1.0580959,0.94509391)"
       id="path10" />
    <path
       style="font-size:190.032px;font-family:'Songti SC';-inkscape-font-specification:'Songti SC';fill:#d35f5f;stroke-width:0.989743"
       d="m 40.856372,105.73337 q 17.863008,9.88167 17.863008,17.10288 0,4.37074 -3.420576,8.55144 -3.230544,3.99067 -6.081024,3.99067 -2.85048,0 -4.180704,-1.71028 -1.140192,-1.71029 -0.95016,-4.7508 0.190032,-3.23055 0.190032,-5.51093 0,-8.17138 -5.130864,-15.58263 z"
       transform="scale(1.0580959,0.94509391)"
       id="path9" />
    <path
       style="font-size:190.032px;font-family:'Songti SC';-inkscape-font-specification:'Songti SC';fill:#d35f5f;stroke-width:0.989743"
       d="m 70.881428,144.4999 v 23.37394 h 14.822496 l 8.931504,-10.26173 10.261732,12.16205 q 1.14019,1.71028 1.14019,2.66044 0,0.76013 -2.66045,0.76013 H 70.881428 v 42.94723 q 0,10.26173 -1.710288,13.68231 -1.710288,3.6106 -7.221216,7.41124 -5.510928,3.99068 -6.841152,3.99068 -1.330224,0 -2.280384,-3.23055 -0.95016,-5.32089 -5.320896,-8.17137 -4.370736,-2.66045 -12.542112,-5.13087 l 0.570096,-2.66045 q 11.211888,1.1402 15.582624,1.1402 4.370736,0 5.510928,-1.33023 1.330224,-1.14019 1.330224,-4.56077 V 173.19473 H 39.71618 q -7.221216,0 -12.542111,1.71029 l -6.65112,-7.98134 q 5.320896,0.95016 15.392591,0.95016 H 57.959252 V 144.4999 H 34.395284 q -7.411247,0 -12.542111,2.09035 l -6.65112,-8.17137 q 6.841152,0.95016 15.20256,0.95016 h 38.956559 q 7.981344,-19.5733 9.691632,-36.67618 l 14.2524,7.03118 q 2.660448,1.1402 2.660448,2.09036 0,0.95016 -2.85048,2.47041 -2.660448,1.52026 -6.081024,6.08103 -3.420576,4.56076 -11.972016,19.0032 h 14.2524 l 9.311568,-11.21189 11.21189,13.11221 q 1.33022,1.71028 1.33022,2.47041 0,0.76013 -2.66045,0.76013 z"
       transform="scale(1.0580959,0.94509391)"
       id="path8" />
    <path
       style="font-size:190.032px;font-family:'Songti SC';-inkscape-font-specification:'Songti SC';fill:#d35f5f;stroke-width:0.989743"
       d="m 105.46725,98.132092 q 0.95016,1.140192 0.95016,2.280388 0,1.14019 -2.47041,1.14019 H 39.336116 q -7.791312,0 -12.542111,1.71029 l -6.65112,-8.17138 q 6.841152,1.140192 15.012527,1.140192 H 85.32386 l 9.311568,-10.831823 z"
       transform="scale(1.0580959,0.94509391)"
       id="path7" />
    <path
       style="font-size:190.032px;font-family:'Songti SC';-inkscape-font-specification:'Songti SC';fill:#d35f5f;stroke-width:0.989743"
       d="m 129.41128,142.59958 q -0.38006,43.3273 -9.88166,63.85075 -9.5016,20.52346 -38.196432,36.10608 l -1.90032,-2.47042 q 17.672976,-14.63246 25.274252,-25.65432 7.79132,-11.21188 10.0717,-27.17457 2.28038,-15.96269 2.28038,-45.22762 0,-29.26492 -0.57009,-59.670043 L 131.3116,94.14142 q 19.95336,-6.081023 40.09675,-17.672975 l 11.59196,13.30224 q 1.52025,1.710287 1.52025,3.040511 0,1.140192 -1.14019,1.140192 -1.14019,0 -3.23054,-0.760128 -2.09036,-0.95016 -4.94084,-0.95016 -2.85048,0 -5.51092,0.380064 l -39.90672,6.65112 q 0,10.261726 -0.38007,38.196436 h 36.48615 l 10.64179,-12.73215 12.35208,14.63247 q 1.33022,1.52025 1.33022,2.47041 0,0.76013 -2.66045,0.76013 h -24.70416 v 57.19963 l 0.38007,35.15592 q 0,3.42058 -5.51093,5.89099 -5.32089,2.66045 -7.22121,2.66045 -1.90032,0 -1.90032,-4.1807 l 0.76012,-16.91285 q 0.5701,-11.40192 0.5701,-26.98454 v -52.8289 z"
       transform="scale(1.0580959,0.94509391)"
       id="path6" />
    <path
       style="font-size:190.032px;font-family:'Songti SC';-inkscape-font-specification:'Songti SC';fill:#d35f5f;stroke-width:0.989743"
       d="m 54.348644,68.867165 q 10.45176,3.420576 15.392592,6.65112 5.130864,3.040512 5.130864,7.221216 0,3.990672 -3.610608,7.981343 -3.420576,3.80064 -7.221216,3.80064 -3.80064,0 -4.940832,-6.461087 -1.710288,-9.881664 -6.461088,-16.912848 z"
       transform="scale(1.0580959,0.94509391)"
       id="text6" />
  </g>
</svg>
