<?xml version="1.0" encoding="UTF-8" standalone="no"?>
<!-- Created with Inkscape (http://www.inkscape.org/) -->

<svg
   width="210mm"
   height="297mm"
   viewBox="0 0 210 297"
   version="1.1"
   id="svg1"
   inkscape:version="1.3.2 (091e20e, 2023-11-25)"
   sodipodi:docname="new.svg"
   xmlns:inkscape="http://www.inkscape.org/namespaces/inkscape"
   xmlns:sodipodi="http://sodipodi.sourceforge.net/DTD/sodipodi-0.dtd"
   xmlns="http://www.w3.org/2000/svg"
   xmlns:svg="http://www.w3.org/2000/svg">
  <sodipodi:namedview
     id="namedview1"
     pagecolor="#ffffff"
     bordercolor="#000000"
     borderopacity="0.25"
     inkscape:showpageshadow="2"
     inkscape:pageopacity="0.0"
     inkscape:pagecheckerboard="0"
     inkscape:deskcolor="#d1d1d1"
     inkscape:document-units="mm"
     inkscape:zoom="0.61023429"
     inkscape:cx="397.38836"
     inkscape:cy="561.25984"
     inkscape:window-width="1440"
     inkscape:window-height="900"
     inkscape:window-x="0"
     inkscape:window-y="0"
     inkscape:window-maximized="0"
     inkscape:current-layer="layer1" />
  <defs
     id="defs1" />
  <g
     inkscape:label="图层 1"
     inkscape:groupmode="layer"
     id="layer1">
    <text
       xml:space="preserve"
       style="font-size:50.8px;fill:#000000;stroke-width:0.264583"
       x="80.211678"
       y="140.47882"
       id="text1"><tspan
         sodipodi:role="line"
         id="tspan1"
         style="stroke-width:0.264583;font-size:50.8px"
         x="80.211678"
         y="140.47882" /></text>
    <path
       style="font-size:170.869px;fill:#d35f5f;stroke-width:0.889942"
       d="M 47.243653,103.07155 Q 46.242468,128.51835 33.81108,148.3752 L 22.297446,143.36927 Q 33.477352,124.84734 35.312858,99.317106 Z"
       transform="scale(1.0468344,0.95526094)"
       id="path6" />
    <path
       style="font-size:170.869px;fill:#d35f5f;stroke-width:0.889942"
       d="M 85.705865,133.35742 73.441342,136.945 Q 69.85376,118.0059 61.260251,106.32541 V 221.46175 H 48.828864 V 68.864379 h 12.431387 v 33.873441 l 9.928424,-3.253849 q 11.430201,14.183459 14.51719,33.873449 z"
       transform="scale(1.0468344,0.95526094)"
       id="path5" />
    <path
       style="font-size:170.869px;fill:#d35f5f;stroke-width:0.889942"
       d="m 145.35984,142.20122 v -34.04031 h -21.19176 q -0.2503,22.02608 -1.50178,34.04031 z"
       transform="scale(1.0468344,0.95526094)"
       id="path4" />
    <path
       style="font-size:170.869px;fill:#d35f5f;stroke-width:0.889942"
       d="m 178.48239,211.19959 -9.01067,11.01304 q -37.96162,-20.274 -48.72436,-67.91375 -6.09055,24.11189 -16.01897,38.46221 -9.84499,14.35033 -30.786455,28.36693 l -9.427831,-10.59588 q 19.18939,-12.51482 27.532603,-22.86041 8.426643,-10.34558 14.350323,-32.95569 H 71.856132 v -12.51482 h 37.294158 q 1.41835,-13.43257 1.66865,-34.04031 H 81.283962 V 95.729525 H 110.9858 V 66.695143 h 13.01541 v 29.034382 h 34.87463 v 46.471695 h 13.68287 v 12.51482 h -38.12848 q 9.76156,39.88056 44.05216,56.48355 z"
       transform="scale(1.0468344,0.95526094)"
       id="text4" />
  </g>
</svg>
