<?xml version="1.0" encoding="UTF-8" standalone="no"?>
<!-- Created with Inkscape (http://www.inkscape.org/) -->

<svg
   width="210mm"
   height="297mm"
   viewBox="0 0 210 297"
   version="1.1"
   id="svg1"
   inkscape:version="1.3.2 (091e20e, 2023-11-25)"
   sodipodi:docname="new.svg"
   xmlns:inkscape="http://www.inkscape.org/namespaces/inkscape"
   xmlns:sodipodi="http://sodipodi.sourceforge.net/DTD/sodipodi-0.dtd"
   xmlns="http://www.w3.org/2000/svg"
   xmlns:svg="http://www.w3.org/2000/svg">
  <sodipodi:namedview
     id="namedview1"
     pagecolor="#ffffff"
     bordercolor="#000000"
     borderopacity="0.25"
     inkscape:showpageshadow="2"
     inkscape:pageopacity="0.0"
     inkscape:pagecheckerboard="0"
     inkscape:deskcolor="#d1d1d1"
     inkscape:document-units="mm"
     inkscape:zoom="0.61023429"
     inkscape:cx="397.38836"
     inkscape:cy="561.25984"
     inkscape:window-width="1440"
     inkscape:window-height="900"
     inkscape:window-x="0"
     inkscape:window-y="0"
     inkscape:window-maximized="0"
     inkscape:current-layer="layer1" />
  <defs
     id="defs1" />
  <g
     inkscape:label="图层 1"
     inkscape:groupmode="layer"
     id="layer1">
    <text
       xml:space="preserve"
       style="font-size:50.8px;fill:#000000;stroke-width:0.264583"
       x="80.211678"
       y="140.47882"
       id="text1"><tspan
         sodipodi:role="line"
         id="tspan1"
         style="stroke-width:0.264583;font-size:50.8px"
         x="80.211678"
         y="140.47882" /></text>
    <path
       style="font-size:158.474px;fill:#d35f5f;stroke-width:0.825384"
       d="M 63.332576,155.30933 C 56.00953,168.64456 46.411901,178.1663 34.539689,183.87455 l -7.655912,-8.70628 c 12.371511,-5.90012 21.442102,-14.53444 27.211774,-25.90297 z"
       id="path4" />
    <path
       style="font-size:158.474px;fill:#d35f5f;stroke-width:0.825384"
       d="M 111.76454,124.36968 H 79.726214 v 10.57704 h 27.211776 v 10.7929 H 79.726214 v 10.43314 h 0.499299 l 4.576904,-5.39645 c 8.377121,4.50903 15.478263,10.98477 21.303413,19.42722 l -8.654514,8.56238 c -3.439613,-7.05137 -9.347981,-13.35922 -17.725102,-18.92356 v 28.34936 c 0,3.11795 -1.248247,5.90012 -3.74474,8.34651 -2.441015,2.49436 -5.464545,3.74154 -9.070591,3.74154 H 53.096955 l -4.410472,-11.80024 13.647496,0.86343 c 0.887642,0.0959 1.830762,-0.23984 2.829359,-1.00734 1.054075,-0.76749 1.581112,-1.60694 1.581112,-2.51835 V 145.73962 H 39.116593 v -10.7929 H 66.74445 V 124.36968 H 33.125009 v -10.79291 h 24.548849 c -1.497896,-5.08465 -5.852889,-10.0254 -13.06498,-14.822248 l 11.234219,-4.029357 c 7.267569,4.988723 12.1496,11.272595 14.646093,18.851605 h 7.156614 c 5.38133,-4.74888 9.34798,-10.93681 11.89995,-18.563794 l 11.483866,4.029357 c -2.274581,5.852147 -5.464543,10.696967 -9.569887,14.534437 h 20.304807 z"
       id="path3" />
    <path
       style="font-size:158.474px;fill:#d35f5f;stroke-width:0.825384"
       d="m 178.83699,121.70743 h -19.05656 v 76.77351 h -12.98177 v -76.77351 h -16.97615 v 18.99551 c 0,19.81097 -6.82375,38.92639 -20.47125,57.34628 L 97.784182,190.99786 C 110.48855,176.31951 116.84074,155.83698 116.84074,129.55027 V 80.910253 c 18.36309,-1.822801 35.39473,-6.451757 51.0949,-13.886868 l 8.23843,9.137991 c -12.64891,6.379805 -28.09943,10.960793 -46.35156,13.742963 v 21.082141 h 49.01448 z"
       id="path2" />
    <path
       style="font-size:158.474px;fill:#d35f5f;stroke-width:0.825384"
       d="M 107.93658,92.422685 H 37.452264 V 81.62978 H 65.32977 C 63.221621,78.415893 59.643314,74.626385 54.594851,70.261256 l 13.783195,-4.097582 c 6.324449,6.475742 9.045847,11.053008 10.765654,15.466106 h 28.79288 z"
       id="text2" />
  </g>
</svg>
