<?xml version="1.0" encoding="UTF-8" standalone="no"?>
<!-- Created with Inkscape (http://www.inkscape.org/) -->

<svg
   width="210mm"
   height="297mm"
   viewBox="0 0 210 297"
   version="1.1"
   id="svg1"
   inkscape:version="1.3.2 (091e20e, 2023-11-25)"
   sodipodi:docname="xuwen.svg"
   xmlns:inkscape="http://www.inkscape.org/namespaces/inkscape"
   xmlns:sodipodi="http://sodipodi.sourceforge.net/DTD/sodipodi-0.dtd"
   xmlns="http://www.w3.org/2000/svg"
   xmlns:svg="http://www.w3.org/2000/svg">
  <sodipodi:namedview
     id="namedview1"
     pagecolor="#ffffff"
     bordercolor="#000000"
     borderopacity="0.25"
     inkscape:showpageshadow="2"
     inkscape:pageopacity="0.0"
     inkscape:pagecheckerboard="0"
     inkscape:deskcolor="#d1d1d1"
     inkscape:document-units="mm"
     inkscape:zoom="0.5852904"
     inkscape:cx="397.2387"
     inkscape:cy="561.25984"
     inkscape:window-width="1440"
     inkscape:window-height="872"
     inkscape:window-x="0"
     inkscape:window-y="28"
     inkscape:window-maximized="0"
     inkscape:current-layer="layer1" />
  <defs
     id="defs1" />
  <g
     inkscape:label="图层 1"
     inkscape:groupmode="layer"
     id="layer1">
    <path
       style="font-size:75.3628px;font-family:'Songti SC';-inkscape-font-specification:'Songti SC';fill:#ff0000;stroke-width:0.392514"
       d="m 116.55406,89.796729 q 8.13918,4.521768 11.98268,7.913094 3.91887,3.315967 3.91887,5.275397 0,2.03479 -1.05508,3.8435 -1.05508,1.80871 -2.26089,1.80871 -1.50725,0 -2.48697,-2.86379 -2.6377,-7.234826 -11.00297,-14.997195 z"
       transform="scale(1.0186602,0.98168163)"
       id="path5" />
    <path
       style="font-size:75.3628px;font-family:'Songti SC';-inkscape-font-specification:'Songti SC';fill:#ff0000;stroke-width:0.392514"
       d="m 103.2902,91.303985 q 0.97972,0.602902 0.97972,1.205805 0,0.527539 -1.43189,0.904353 -1.4319,0.376814 -3.617418,3.315964 -5.878298,7.762373 -14.168207,14.168203 l -0.979716,-0.97971 q 7.988457,-8.21455 14.469658,-21.70449 z"
       transform="scale(1.0186602,0.98168163)"
       id="path4" />
    <path
       style="font-size:75.3628px;font-family:'Songti SC';-inkscape-font-specification:'Songti SC';fill:#ff0000;stroke-width:0.392514"
       d="m 76.988586,79.472025 q -4.29568,4.29568 -9.721801,8.742085 L 66.287068,87.309756 Q 78.345116,74.347355 86.032122,59.500883 l 4.446405,3.2406 q 1.130442,0.753628 1.130442,1.431894 0,0.602902 -1.431893,0.904353 -1.356531,0.301451 -4.069591,3.918866 -2.713061,3.617414 -5.65221,6.782652 l 1.808707,0.828991 q 0.828991,0.376814 0.828991,0.678265 0,0.301451 -0.226089,0.452177 l -0.678265,0.527539 v 18.840701 q 0,7.234829 0.07536,10.550789 0.150725,3.31597 0.150725,3.54205 0,1.4319 -2.260884,2.6377 -2.260884,1.20581 -3.089874,1.20581 -0.753628,0 -0.753628,-1.05508 0,-0.97972 0.07536,-1.80871 0.226089,-1.80871 0.376814,-7.687 0.226089,-5.878303 0.226089,-9.043541 z"
       transform="scale(1.0186602,0.98168163)"
       id="path3" />
    <path
       style="font-size:75.3628px;font-family:'Songti SC';-inkscape-font-specification:'Songti SC';fill:#ff0000;stroke-width:0.392514"
       d="m 89.423448,48.799365 q 1.130442,0.904354 1.130442,1.431894 0,0.527539 -1.281168,0.753628 -0.979716,0.226088 -4.446405,3.391326 -7.913094,6.933377 -16.655179,11.831959 L 67.492873,65.07773 q 5.501484,-4.371042 8.968173,-7.988457 3.466689,-3.617414 9.043536,-11.455145 z"
       transform="scale(1.0186602,0.98168163)"
       id="path2" />
    <path
       style="font-size:75.3628px;font-family:'Songti SC';-inkscape-font-specification:'Songti SC';fill:#ff0000;stroke-width:0.392514"
       d="m 111.95693,83.164802 h 10.9276 l 4.14496,-4.898582 4.82321,5.65221 q 0.45218,0.678266 0.45218,1.05508 0,0.376814 -1.05508,0.376814 h -19.29287 v 20.423316 q 0,3.08988 -0.829,4.6725 -0.75362,1.65798 -3.01451,3.16523 -2.18552,1.50726 -2.93915,1.50726 -0.67826,0 -0.75362,-1.05508 -0.22609,-2.18552 -1.80871,-3.39133 -1.50726,-1.13044 -6.631928,-2.48697 l 0.226088,-1.35653 q 4.59713,0.52754 6.93338,0.52754 2.33624,0 2.93915,-0.6029 0.67826,-0.6029 0.67826,-2.0348 V 85.350324 H 94.774207 q -3.089875,0 -5.049308,0.82899 l -2.637698,-3.391326 q 2.939149,0.376814 6.104387,0.376814 h 13.565302 v -9.797164 h -3.99423 q -2.939146,0 -5.049304,0.828991 l -2.562335,-3.165237 q -4.973945,4.672493 -9.797164,7.762368 l -0.828991,-0.753628 q 7.385554,-6.631926 13.489941,-15.750825 6.179753,-9.194262 9.118903,-17.710258 l 5.50148,2.788423 q 1.13044,0.602903 1.13044,1.055079 0,0.452177 -0.75363,0.602903 -0.75362,0.150725 -1.58261,1.281167 4.06959,7.159466 10.85224,11.756597 6.78265,4.597131 14.84647,5.426122 v 1.055079 q -4.52177,0.753628 -5.2754,3.843503 -0.22608,0.904354 -0.90435,0.904354 -1.13044,0 -6.70729,-3.692778 -5.50148,-3.76814 -8.66672,-7.762368 -3.08988,-3.994229 -5.35076,-9.721801 -7.00874,11.078331 -14.997196,18.8407 2.939149,0.301451 5.953656,0.301451 h 14.31894 l 3.39132,-4.069591 3.99423,4.898582 q 0.52754,0.527539 0.52754,0.904353 0,0.376814 -1.13044,0.376814 h -10.3247 z"
       transform="scale(1.0186602,0.98168163)"
       id="text1" />
    <path
       style="font-size:106.417px;font-family:'Songti SC';-inkscape-font-specification:'Songti SC';fill:#ff0000;stroke-width:0.554255"
       d="M 119.90872,180.5695 H 89.260621 q 8.51336,11.59945 18.090889,17.66522 7.23636,-6.91711 12.55721,-17.66522 z"
       transform="scale(0.96913659,1.0318463)"
       id="path12" />
    <path
       style="font-size:106.417px;font-family:'Songti SC';-inkscape-font-specification:'Songti SC';fill:#ff0000;stroke-width:0.554255"
       d="M 86.387362,180.5695 H 72.446735 q -4.043846,0 -7.129939,1.17058 l -3.831012,-4.68234 q 4.043846,0.6385 8.619777,0.6385 h 68.958219 l 6.81069,-8.08769 7.76844,9.25827 q 0.53208,0.63851 0.53208,1.17059 0,0.53209 -1.17059,0.53209 h -24.90157 q -7.76844,14.36629 -15.0048,20.85773 14.04704,6.38502 42.14113,7.23635 v 1.80909 q -4.46951,0.42567 -6.17218,1.70268 -1.59626,1.277 -2.23476,4.25668 -0.21284,1.38342 -1.59626,1.38342 -2.02192,0 -15.11121,-3.40535 -12.98287,-3.40534 -22.13474,-8.93903 -13.302122,9.79037 -47.249145,15.32405 l -0.851336,-1.59625 Q 91.176127,210.68551 102.882,201.95931 94.368637,195.04221 86.387362,180.5695 Z"
       transform="scale(0.96913659,1.0318463)"
       id="path11" />
    <path
       style="font-size:106.417px;font-family:'Songti SC';-inkscape-font-specification:'Songti SC';fill:#ff0000;stroke-width:0.554255"
       d="m 102.77558,165.99037 q 4.25668,0.95775 6.49144,2.76684 2.34117,1.80909 2.34117,3.83101 0,2.02192 -1.17059,3.19251 -1.17058,1.17059 -3.19251,1.17059 -1.9155,0 -2.44759,-2.55401 -0.74492,-4.3631 -3.08609,-7.44919 z"
       transform="scale(0.96913659,1.0318463)"
       id="path10" />
    <path
       style="font-size:106.417px;font-family:'Songti SC';-inkscape-font-specification:'Songti SC';fill:#ff0000;stroke-width:0.554255"
       d="M 98.731734,166.8417 H 78.193253 v -2.87326 h 20.538481 z"
       transform="scale(0.96913659,1.0318463)"
       id="path9" />
    <path
       style="font-size:106.417px;font-family:'Songti SC';-inkscape-font-specification:'Songti SC';fill:#ff0000;stroke-width:0.554255"
       d="m 135.4456,166.30962 h -20.43206 v -2.97968 h 20.43206 z"
       transform="scale(0.96913659,1.0318463)"
       id="path8" />
    <path
       style="font-size:106.417px;font-family:'Songti SC';-inkscape-font-specification:'Songti SC';fill:#ff0000;stroke-width:0.554255"
       d="M 97.986815,155.98717 H 78.406087 v -2.97968 h 19.580728 z"
       transform="scale(0.96913659,1.0318463)"
       id="path7" />
    <path
       style="font-size:106.417px;font-family:'Songti SC';-inkscape-font-specification:'Songti SC';fill:#ff0000;stroke-width:0.554255"
       d="m 135.23277,155.24225 h -19.47432 v -2.87326 h 19.47432 z"
       transform="scale(0.96913659,1.0318463)"
       id="path6" />
    <path
       style="font-size:106.417px;font-family:'Songti SC';-inkscape-font-specification:'Songti SC';fill:#ff0000;stroke-width:0.554255"
       d="M 104.05258,132.14976 H 83.939771 q -4.469514,0 -7.023522,1.17059 l -3.724595,-4.46952 q 3.937429,0.53209 8.51336,0.53209 h 47.568396 l 6.17219,-7.23636 6.59785,7.98128 q 0.95776,0.95775 0.95776,1.48984 0,0.53208 -1.59626,0.53208 h -30.64809 v 9.47111 h 32.45718 l 4.25668,-5.10801 7.66202,6.59785 q 1.27701,0.95776 1.27701,1.59626 0,0.53208 -1.70267,0.74492 -3.7246,0.6385 -6.81069,2.554 -2.97968,1.91551 -8.19411,7.34278 l -1.06417,-0.53209 5.74652,-10.32245 h -33.62777 q 0,7.76844 0.10641,10.96095 l 0.21284,5.21444 q 0,1.59625 -2.76685,2.76684 -2.76684,1.06417 -3.72459,1.06417 -0.95775,0 -0.95775,-2.12834 l 0.21283,-6.06577 q 0.21283,-3.72459 0.21283,-11.81229 H 73.085237 q 0.212834,2.34118 0.212834,4.57593 0,11.28021 -7.342773,11.28021 -1.596255,0 -2.766842,-0.95776 -1.170587,-0.95775 -1.170587,-2.02192 0,-1.06417 1.489838,-2.55401 3.19251,-2.97967 4.788765,-6.59785 1.596255,-3.61818 2.554008,-9.15186 l 1.383421,0.10641 0.532085,2.44759 h 31.286594 z"
       transform="scale(0.96913659,1.0318463)"
       id="text2" />
  </g>
</svg>
