<?xml version="1.0" encoding="UTF-8" standalone="no"?>
<!-- Created with Inkscape (http://www.inkscape.org/) -->

<svg
   width="210mm"
   height="297mm"
   viewBox="0 0 210 297"
   version="1.1"
   id="svg1"
   inkscape:version="1.3.2 (091e20e, 2023-11-25)"
   sodipodi:docname="zhongguoren.svg"
   xmlns:inkscape="http://www.inkscape.org/namespaces/inkscape"
   xmlns:sodipodi="http://sodipodi.sourceforge.net/DTD/sodipodi-0.dtd"
   xmlns="http://www.w3.org/2000/svg"
   xmlns:svg="http://www.w3.org/2000/svg">
  <sodipodi:namedview
     id="namedview1"
     pagecolor="#ffffff"
     bordercolor="#000000"
     borderopacity="0.25"
     inkscape:showpageshadow="2"
     inkscape:pageopacity="0.0"
     inkscape:pagecheckerboard="0"
     inkscape:deskcolor="#d1d1d1"
     inkscape:document-units="mm"
     inkscape:zoom="0.61023429"
     inkscape:cx="397.38836"
     inkscape:cy="541.59526"
     inkscape:window-width="1440"
     inkscape:window-height="900"
     inkscape:window-x="0"
     inkscape:window-y="0"
     inkscape:window-maximized="0"
     inkscape:current-layer="layer1" />
  <defs
     id="defs1" />
  <g
     inkscape:label="图层 1"
     inkscape:groupmode="layer"
     id="layer1">
    <path
       style="font-size:61.4174px;font-family:'Songti TC';-inkscape-font-specification:'Songti TC';stroke-width:0.319882"
       d="M 70.500308,82.757015 V 67.832586 H 55.084541 v 14.924429 z"
       transform="scale(1.0008722,0.99912856)"
       id="path13" />
    <path
       style="font-size:61.4174px;font-family:'Songti TC';-inkscape-font-specification:'Songti TC';stroke-width:0.319882"
       d="M 50.416818,67.832586 H 35.369555 v 14.924429 h 15.047263 z"
       transform="scale(1.0008722,0.99912856)"
       id="path12" />
    <path
       style="font-size:61.4174px;font-family:'Songti TC';-inkscape-font-specification:'Songti TC';stroke-width:0.319882"
       d="m 55.084541,66.112899 h 15.231515 l 2.518113,-3.132287 4.114966,3.500791 q 0.737009,0.614174 0.737009,0.982679 0,0.307087 -0.675592,0.737009 l -1.781104,1.228348 v 9.826784 q 0,2.026774 0.122835,3.746461 l 0.245669,2.886618 q 0,1.044096 -1.965357,2.088192 -1.965356,0.982678 -2.57953,0.982678 -0.552757,0 -0.552757,-0.798426 V 84.476702 H 55.084541 V 94.91766 q 0,6.08032 0.06142,8.59844 0.122835,2.57953 0.122835,2.76378 0,1.16693 -2.149609,2.14961 -2.149609,1.04409 -2.702366,1.04409 -0.491339,0 -0.491339,-1.16693 l 0.307087,-6.20315 q 0.184252,-4.053553 0.184252,-8.59844 V 84.476702 H 35.369555 v 2.272444 q 0,0.798426 -0.429922,1.289765 -0.368504,0.491339 -1.842522,1.105513 -1.4126,0.614174 -2.026774,0.614174 -0.552757,0 -0.737009,-0.429922 -0.122835,-0.491339 0,-1.658269 0.552757,-5.036227 0.552757,-9.642532 V 70.3507 q 0,-4.053549 -0.184252,-7.492923 l 4.974809,3.255122 h 14.740176 v -4.48347 q 0,-5.896071 -0.245669,-10.133871 l 6.817331,2.8252 q 0.982678,0.368505 0.982678,0.737009 0,0.307087 -0.982678,0.921261 l -1.903939,1.166931 z"
       transform="scale(1.0008722,0.99912856)"
       id="text1" />
    <path
       style="font-size:114.691px;font-family:'Songti TC';-inkscape-font-specification:'Songti TC';stroke-width:0.597345"
       d="m 141.35582,97.81456 -20.07092,8.02837 q -9.06059,3.67011 -10.32219,5.0464 -1.26161,1.3763 -1.94975,1.3763 -0.57346,0 -1.2616,-1.03222 l -4.12888,-5.73455 37.27458,-9.519356 z"
       transform="scale(1.0154321,0.98480242)"
       id="path11" />
    <path
       style="font-size:114.691px;font-family:'Songti TC';-inkscape-font-specification:'Songti TC';stroke-width:0.597345"
       d="M 128.96919,87.262988 V 73.041304 h -12.27193 v 14.221684 z"
       transform="scale(1.0154321,0.98480242)"
       id="path10" />
    <path
       style="font-size:114.691px;font-family:'Songti TC';-inkscape-font-specification:'Songti TC';stroke-width:0.597345"
       d="m 117.50009,69.829956 h 11.35441 l 2.29382,-4.128876 5.50517,3.784803 q 1.03222,0.802837 1.03222,1.14691 0,0.344073 -0.57346,1.032219 l -1.83505,1.605674 v 4.014185 q 0,4.817022 0.34407,7.913679 l 0.22938,5.161095 q 0,1.949747 -2.86727,3.211348 -2.75259,1.14691 -3.44073,1.14691 -0.57346,0 -0.57346,-0.917528 v -3.44073 h -12.27193 v 1.835056 q 0,2.29382 -0.34408,3.096657 -0.34407,0.802837 -2.5232,1.835056 -2.06444,0.917528 -3.09666,0.917528 -0.91752,0 -0.91752,-1.261601 0,-1.261601 0.45876,-4.358258 0.57345,-3.211348 0.57345,-9.634044 v -6.652078 q 0,-4.472949 -0.45876,-10.551572 z"
       transform="scale(1.0154321,0.98480242)"
       id="path9" />
    <path
       style="font-size:114.691px;font-family:'Songti TC';-inkscape-font-specification:'Songti TC';stroke-width:0.597345"
       d="m 152.25147,43.451025 q 6.88146,1.14691 9.74873,2.867275 2.86728,1.605674 2.86728,4.014185 0,2.408511 -1.03222,3.555421 -1.03222,1.14691 -2.17913,1.14691 -1.03222,0 -1.94975,-0.573455 -0.80284,-0.688146 -1.03222,-1.605674 -1.37629,-4.358258 -7.34022,-7.454915 z"
       transform="scale(1.0154321,0.98480242)"
       id="path8" />
    <path
       style="font-size:114.691px;font-family:'Songti TC';-inkscape-font-specification:'Songti TC';stroke-width:0.597345"
       d="m 141.24113,62.030968 h -25.92017 q -4.81702,0 -7.68429,1.14691 l -4.24357,-4.931714 q 4.35826,0.573455 9.28997,0.573455 h 28.44337 q -0.22938,-9.863426 -0.11469,-15.483285 l 8.48713,3.899494 q 1.14691,0.458764 1.14691,1.032219 0,0.458764 -1.03222,1.261601 l -2.06443,1.605674 -0.22939,7.684297 h 13.53354 l 5.27579,-6.193314 6.07862,7.225533 q 0.91753,1.03222 0.91753,1.605675 0,0.573455 -1.72037,0.573455 h -24.08511 q 0.34408,15.597976 3.09666,27.411149 5.96393,-9.060589 9.51935,-19.956234 l 6.76677,4.014185 q 1.83506,1.032219 1.83506,1.720365 0,0.688146 -1.49098,1.14691 -1.49099,0.344073 -3.67012,4.358258 -4.47295,8.601825 -10.43688,15.712667 1.37629,3.326039 4.70233,7.798992 3.44073,4.35825 4.47295,4.35825 1.03222,0 1.60568,-1.94974 l 2.98196,-11.698485 1.49099,0.229382 q -0.57346,5.505173 -0.57346,10.322193 0,4.70233 1.60567,9.97811 0.45877,1.14691 0.45877,2.29382 0,1.26161 -1.94975,1.26161 -1.83505,0 -8.02837,-4.58764 -6.19331,-4.58764 -11.01033,-13.30416 -11.12503,11.4691 -26.26424,17.66241 l -0.80284,-1.49098 q 14.79514,-9.51935 24.42918,-21.79129 -4.24356,-10.32219 -4.81702,-33.489772 z"
       transform="scale(1.0154321,0.98480242)"
       id="path7" />
    <path
       style="font-size:114.691px;font-family:'Songti TC';-inkscape-font-specification:'Songti TC';stroke-width:0.597345"
       d="M 173.69868,122.24374 V 42.074733 h -71.79656 v 80.169007 z"
       transform="scale(1.0154321,0.98480242)"
       id="path6" />
    <path
       style="font-size:114.691px;font-family:'Songti TC';-inkscape-font-specification:'Songti TC';stroke-width:0.597345"
       d="m 102.24619,38.978076 h 70.0762 l 3.8995,-5.046404 7.34022,5.505168 q 1.2616,0.917528 1.2616,1.835056 0,0.802837 -1.03222,1.605674 l -2.63789,1.720365 v 59.639325 q 0,10.55157 1.2616,24.77325 0,2.06444 -3.32604,3.78481 -3.21135,1.72036 -4.35826,1.72036 -1.03222,0 -1.03222,-1.60567 v -7.56961 h -71.79656 v 4.93171 q 0,1.94975 -0.57346,2.75259 -0.57345,0.80283 -3.211346,1.83505 -2.637893,1.14691 -3.784803,1.14691 -1.146911,0 -1.146911,-1.37629 0,-1.37629 0.114691,-2.5232 1.261602,-11.23972 1.261602,-25.69078 V 49.644339 q 0,-10.207499 -0.458764,-16.05674 z"
       transform="scale(1.0154321,0.98480242)"
       id="text3" />
    <path
       style="font-size:111.297px;font-family:'Songti TC';-inkscape-font-specification:'Songti TC';stroke-width:0.579668"
       d="m 102.10058,169.59359 q -0.55648,1.33557 -0.44519,2.89373 0.1113,1.55815 0.1113,5.45355 0,22.2594 -4.229285,37.0619 -4.229286,14.6912 -16.138065,25.37571 -11.908778,10.57322 -30.606674,17.02845 l -1.224267,-2.00335 q 8.235978,-3.6728 15.915471,-9.34895 7.790789,-5.56485 13.800827,-13.02175 6.121335,-7.4569 9.126354,-15.91547 3.005019,-8.56987 4.674474,-23.14977 1.780752,-14.69121 2.003346,-35.94893 l 11.797479,4.34058 q 1.78075,0.55648 1.78075,1.55816 0,1.00167 -1.78075,1.44686 -1.66945,0.44519 -3.11631,1.89205 1.11297,14.24601 5.78744,30.38408 4.78577,16.02677 10.35062,24.15145 5.67615,8.01338 15.35899,15.69287 9.79413,7.5682 17.80752,10.01673 l -0.44519,1.89205 q -7.3456,-1.00167 -11.0184,6.01004 -0.2226,0.33389 -0.55649,0.33389 -2.33724,0 -15.24769,-13.13305 -12.91045,-13.02174 -18.03011,-30.71797 -5.11966,-17.80752 -5.67615,-42.29286 z"
       transform="scale(1.0680204,0.9363117)"
       id="text5" />
  </g>
</svg>
