<?xml version="1.0" encoding="UTF-8" standalone="no"?>
<!-- Created with Inkscape (http://www.inkscape.org/) -->

<svg
   width="210mm"
   height="297mm"
   viewBox="0 0 210 297"
   version="1.1"
   id="svg1"
   inkscape:version="1.3.2 (091e20e, 2023-11-25)"
   sodipodi:docname="zhongguoren.svg"
   xmlns:inkscape="http://www.inkscape.org/namespaces/inkscape"
   xmlns:sodipodi="http://sodipodi.sourceforge.net/DTD/sodipodi-0.dtd"
   xmlns="http://www.w3.org/2000/svg"
   xmlns:svg="http://www.w3.org/2000/svg">
  <sodipodi:namedview
     id="namedview1"
     pagecolor="#ffffff"
     bordercolor="#000000"
     borderopacity="0.25"
     inkscape:showpageshadow="2"
     inkscape:pageopacity="0.0"
     inkscape:pagecheckerboard="0"
     inkscape:deskcolor="#d1d1d1"
     inkscape:document-units="mm"
     inkscape:zoom="0.61023429"
     inkscape:cx="397.38836"
     inkscape:cy="541.59526"
     inkscape:window-width="1440"
     inkscape:window-height="900"
     inkscape:window-x="0"
     inkscape:window-y="0"
     inkscape:window-maximized="0"
     inkscape:current-layer="layer1" />
  <defs
     id="defs1" />
  <g
     inkscape:label="图层 1"
     inkscape:groupmode="layer"
     id="layer1">
    <path
       style="font-size:61.4174px;font-family:'Songti TC';-inkscape-font-specification:'Songti TC';stroke-width:0.363078"
       d="M 69.208275,84.958878 V 67.926879 H 51.805503 v 17.031999 z"
       id="path13" />
    <path
       style="font-size:61.4174px;font-family:'Songti TC';-inkscape-font-specification:'Songti TC';stroke-width:0.363078"
       d="m 46.536136,67.926879 h -16.98677 v 17.031999 h 16.98677 z"
       id="path12" />
    <path
       style="font-size:61.4174px;font-family:'Songti TC';-inkscape-font-specification:'Songti TC';stroke-width:0.363078"
       d="m 51.805503,65.964345 h 17.194771 l 2.842684,-3.574617 4.645362,3.99516 q 0.832005,0.700905 0.832005,1.121449 0,0.350452 -0.762672,0.841086 l -2.010678,1.401811 v 11.214484 q 0,2.312987 0.138667,4.275522 l 0.277335,3.294255 q 0,1.191539 -2.218681,2.383078 -2.218679,1.121448 -2.912017,1.121448 -0.624004,0 -0.624004,-0.911176 V 86.921413 H 51.805503 v 11.91539 q 0,6.938957 0.06934,9.812677 0.138668,2.9438 0.138668,3.15407 0,1.33172 -2.426682,2.45317 -2.426681,1.19153 -3.050685,1.19153 -0.55467,0 -0.55467,-1.33172 l 0.346669,-7.07913 q 0.208001,-4.62598 0.208001,-9.812679 V 86.921413 H 29.549366 v 2.59335 q 0,0.911176 -0.485337,1.4719 -0.416002,0.560724 -2.080012,1.26163 -1.594677,0.700905 -2.288014,0.700905 -0.624004,0 -0.832005,-0.490634 -0.138668,-0.560724 0,-1.892443 0.624004,-5.747424 0.624004,-11.004213 v -8.761316 q 0,-4.625976 -0.208001,-8.551045 l 5.616034,3.714798 h 16.640101 v -5.116608 q 0,-6.728692 -0.277334,-11.564937 l 7.696047,3.224163 q 1.109339,0.420544 1.109339,0.841087 0,0.350453 -1.109339,1.051358 l -2.149346,1.33172 z"
       id="text1" />
    <path
       style="font-size:114.691px;font-family:'Songti TC';-inkscape-font-specification:'Songti TC';stroke-width:0.668965"
       d="m 148.55132,118.46955 -22.46986,8.99395 q -10.14354,4.11152 -11.55593,5.65333 -1.4124,1.54182 -2.18279,1.54182 -0.642,0 -1.41239,-1.15636 l -4.62237,-6.42424 41.72975,-10.66425 z"
       id="path11" />
    <path
       style="font-size:114.691px;font-family:'Songti TC';-inkscape-font-specification:'Songti TC';stroke-width:0.668965"
       d="M 134.6842,106.64895 V 90.716823 h -13.7387 v 15.932127 z"
       id="path10" />
    <path
       style="font-size:114.691px;font-family:'Songti TC';-inkscape-font-specification:'Songti TC';stroke-width:0.668965"
       d="m 121.84429,87.119247 h 12.71152 l 2.56798,-4.625456 6.16316,4.240001 q 1.15559,0.899394 1.15559,1.284849 0,0.385454 -0.642,1.156363 l -2.05438,1.798789 v 4.49697 q 0,5.396367 0.38519,8.865467 l 0.2568,5.78182 q 0,2.18423 -3.20997,3.59757 -3.08159,1.28485 -3.85197,1.28485 -0.64201,0 -0.64201,-1.02788 v -3.85454 h -13.7387 v 2.05575 q 0,2.56969 -0.38521,3.46909 -0.38519,0.89939 -2.82478,2.05576 -2.31119,1.02788 -3.46678,1.02788 -1.02719,0 -1.02719,-1.41334 0,-1.41333 0.51359,-4.88242 0.64199,-3.59757 0.64199,-10.79273 v -7.452126 q 0,-5.01091 -0.51359,-11.820608 z"
       id="path9" />
    <path
       style="font-size:114.691px;font-family:'Songti TC';-inkscape-font-specification:'Songti TC';stroke-width:0.668965"
       d="m 160.74924,57.567724 q 7.70396,1.284848 10.91394,3.212122 3.20998,1.798789 3.20998,4.49697 0,2.698183 -1.15559,3.983031 -1.15559,1.284849 -2.43959,1.284849 -1.15559,0 -2.18279,-0.642424 -0.8988,-0.77091 -1.15559,-1.798788 -1.54079,-4.882426 -8.21755,-8.351517 z"
       id="path8" />
    <path
       style="font-size:114.691px;font-family:'Songti TC';-inkscape-font-specification:'Songti TC';stroke-width:0.668965"
       d="M 148.42292,78.382274 H 119.4047 q -5.39277,0 -8.60275,1.284849 l -4.75076,-5.52485 q 4.87916,0.642424 10.40033,0.642424 h 31.843 q -0.25679,-11.049699 -0.1284,-17.345457 l 9.50154,4.368485 q 1.28399,0.51394 1.28399,1.156364 0,0.513939 -1.1556,1.413333 l -2.31116,1.798789 -0.25681,8.608486 h 15.15111 l 5.90636,-6.938182 6.80516,8.094546 q 1.02719,1.156366 1.02719,1.79879 0,0.642423 -1.92599,0.642423 h -26.96383 q 0.3852,17.473944 3.46677,30.707886 6.67676,-10.150303 10.65714,-22.356368 l 7.57555,4.496971 q 2.05439,1.156364 2.05439,1.927273 0,0.770908 -1.66919,1.284848 -1.6692,0.385455 -4.10877,4.882423 -5.00758,9.636363 -11.68434,17.602433 1.54079,3.72606 5.26437,8.73697 3.85198,4.88242 5.00758,4.88242 1.15559,0 1.79759,-2.18423 l 3.33837,-13.10546 1.6692,0.25697 q -0.64201,6.16728 -0.64201,11.56364 0,5.26788 1.79759,11.17818 0.5136,1.28485 0.5136,2.5697 0,1.41333 -2.18279,1.41333 -2.05438,0 -8.98794,-5.13938 -6.93355,-5.1394 -12.32631,-14.90425 -12.45474,12.84847 -29.40343,19.78666 l -0.8988,-1.6703 q 16.5635,-10.66424 27.34904,-24.41213 -4.75077,-11.56363 -5.39277,-37.517586 z"
       id="path7" />
    <path
       style="font-size:114.691px;font-family:'Songti TC';-inkscape-font-specification:'Songti TC';stroke-width:0.668965"
       d="M 184.75989,145.83683 V 56.025906 H 104.382 v 89.810924 z"
       id="path6" />
    <path
       style="font-size:114.691px;font-family:'Songti TC';-inkscape-font-specification:'Songti TC';stroke-width:0.668965"
       d="m 104.76719,52.556814 h 78.45191 l 4.36559,-5.653334 8.21754,6.167274 q 1.41239,1.027878 1.41239,2.055757 0,0.899395 -1.1556,1.798789 l -2.95318,1.927272 v 66.812138 q 0,11.82062 1.41239,27.75273 0,2.31274 -3.72358,4.24001 -3.59517,1.92727 -4.87916,1.92727 -1.1556,0 -1.1556,-1.79878 v -8.48001 H 104.382 v 5.52485 q 0,2.18425 -0.642,3.08364 -0.64199,0.89938 -3.59518,2.05575 -2.953183,1.28485 -4.237183,1.28485 -1.283987,0 -1.283987,-1.54182 0,-1.54181 0.128398,-2.82666 1.412389,-12.59152 1.412389,-28.78061 V 64.505907 q 0,-11.435153 -0.51359,-17.987882 z"
       id="text3" />
    <path
       style="font-size:111.297px;font-family:'Songti TC';-inkscape-font-specification:'Songti TC';stroke-width:0.796152"
       d="m 80.217783,123.7718 q -0.752843,1.86227 -0.602283,4.03493 0.150575,2.17264 0.150575,7.60427 0,31.03783 -5.721654,51.67798 -5.721653,20.48496 -21.832627,35.38311 -16.110972,14.74298 -41.406706,23.74395 l -1.6562682,-2.79341 q 11.1421692,-5.12124 21.5314882,-13.03588 10.539888,-7.75946 18.670659,-18.15714 8.281341,-10.39768 12.346728,-22.19204 4.065385,-11.94957 6.323933,-32.27934 2.409118,-20.48497 2.710256,-50.12609 l 15.960397,6.05237 q 2.409116,0.77595 2.409116,2.17266 0,1.3967 -2.409116,2.01745 -2.258542,0.62075 -4.215949,2.63823 1.505698,19.86419 7.829629,42.36663 6.474503,22.34724 14.002989,33.67605 7.67907,11.1736 20.77865,21.88165 13.25014,10.55287 24.09118,13.96702 l -0.60228,2.63822 q -9.93761,-1.39669 -14.90642,8.38021 -0.30114,0.46557 -0.75285,0.46557 -3.16197,0 -20.62807,-18.31232 Q 94.823056,207.41876 87.896845,182.74367 80.970633,157.91341 80.217783,123.7718 Z"
       id="text5" />
  </g>
</svg>
